<svg xmlns="http://www.w3.org/2000/svg" width="1000" height="600"><rect width="1000" height="600" x="0" y="0" fill="#FFFFFF" id="backgorund"/><clipPath id="serieClipPath"><rect x="0" y="0" width="250" height="300"/></clipPath><g id="LeBron James" transform="translate(0,0)" clip-path="url(#serieClipPath)"><g id="LeBron James" transform="translate(125, 145)"><g id="axes"><circle r="81" fill="none" stroke="LightGray" class="grid" id="30"/><circle r="76" fill="none" stroke="LightGray" class="grid" id="28"/><circle r="71" fill="none" stroke="LightGray" class="grid" id="26"/><circle r="65" fill="none" stroke="LightGray" class="grid" id="24"/><circle r="60" fill="none" stroke="LightGray" class="grid" id="22"/><circle r="54" fill="none" stroke="LightGray" class="grid" id="20"/><circle r="49" fill="none" stroke="LightGray" class="grid" id="18"/><circle r="43" fill="none" stroke="LightGray" class="grid" id="16"/><circle r="38" fill="none" stroke="LightGray" class="grid" id="14"/><circle r="33" fill="none" stroke="LightGray" class="grid" id="12"/><circle r="27" fill="none" stroke="LightGray" class="grid" id="10"/><circle r="22" fill="none" stroke="LightGray" class="grid" id="8"/><circle r="16" fill="none" stroke="LightGray" class="grid" id="6"/><circle r="11" fill="none" stroke="LightGray" class="grid" id="4"/><circle r="5" fill="none" stroke="LightGray" class="grid" id="2"/><circle r="0" fill="none" stroke="LightGray" class="grid" id="0"/><g><line x1="0" y1="0" x2="5.8170722959499274e-15" y2="-95" stroke="black"/><text text-anchor="middle" dy="0.35em" x="6.429395695523604e-15" y="-105" font-family="Arial, sans-serif" font-size="12">POINTS</text></g><g><line x1="0" y1="0" x2="82.27241335952168" y2="47.499999999999986" stroke="black"/><text text-anchor="middle" dy="0.35em" x="90.93266739736606" y="52.499999999999986" font-family="Arial, sans-serif" font-size="12">REBONDS</text></g><g><line x1="0" y1="0" x2="-82.27241335952165" y2="47.50000000000003" stroke="black"/><text text-anchor="middle" dy="0.35em" x="-90.93266739736605" y="52.500000000000036" font-family="Arial, sans-serif" font-size="12">PASSES</text></g><g id="y axis" fill="none" font-size="10" font-family="sans-serif" text-anchor="end" transform="translate(0, -95)"><path class="domain" stroke="currentColor" d="M-6,0H0V95H-6"/><g class="tick" opacity="1" transform="translate(0,1)"><line stroke="currentColor" x2="-6"/><text fill="currentColor" x="-9" dy="0.32em">30</text></g><g class="tick" opacity="1" transform="translate(0,7)"><line stroke="currentColor" x2="-6"/><text fill="currentColor" x="-9" dy="0.32em">28</text></g><g class="tick" opacity="1" transform="translate(0,13)"><line stroke="currentColor" x2="-6"/><text fill="currentColor" x="-9" dy="0.32em">26</text></g><g class="tick" opacity="1" transform="translate(0,20)"><line stroke="currentColor" x2="-6"/><text fill="currentColor" x="-9" dy="0.32em">24</text></g><g class="tick" opacity="1" transform="translate(0,26)"><line stroke="currentColor" x2="-6"/><text fill="currentColor" x="-9" dy="0.32em">22</text></g><g class="tick" opacity="1" transform="translate(0,32)"><line stroke="currentColor" x2="-6"/><text fill="currentColor" x="-9" dy="0.32em">20</text></g><g class="tick" opacity="1" transform="translate(0,38)"><line stroke="currentColor" x2="-6"/><text fill="currentColor" x="-9" dy="0.32em">18</text></g><g class="tick" opacity="1" transform="translate(0,45)"><line stroke="currentColor" x2="-6"/><text fill="currentColor" x="-9" dy="0.32em">16</text></g><g class="tick" opacity="1" transform="translate(0,51)"><line stroke="currentColor" x2="-6"/><text fill="currentColor" x="-9" dy="0.32em">14</text></g><g class="tick" opacity="1" transform="translate(0,57)"><line stroke="currentColor" x2="-6"/><text fill="currentColor" x="-9" dy="0.32em">12</text></g><g class="tick" opacity="1" transform="translate(0,64)"><line stroke="currentColor" x2="-6"/><text fill="currentColor" x="-9" dy="0.32em">10</text></g><g class="tick" opacity="1" transform="translate(0,70)"><line stroke="currentColor" x2="-6"/><text fill="currentColor" x="-9" dy="0.32em">8</text></g><g class="tick" opacity="1" transform="translate(0,76)"><line stroke="currentColor" x2="-6"/><text fill="currentColor" x="-9" dy="0.32em">6</text></g><g class="tick" opacity="1" transform="translate(0,82)"><line stroke="currentColor" x2="-6"/><text fill="currentColor" x="-9" dy="0.32em">4</text></g><g class="tick" opacity="1" transform="translate(0,89)"><line stroke="currentColor" x2="-6"/><text fill="currentColor" x="-9" dy="0.32em">2</text></g><g class="tick" opacity="1" transform="translate(0,95)"><line stroke="currentColor" x2="-6"/><text fill="currentColor" x="-9" dy="0.32em">0</text></g></g></g><g id="radars"><g id="0"><path d="M19.91858428704209,11.499999999999995C13.986248684139358,18.431018992394176,-10.319544569586752,17.260078619363703,-16.45448267190433,9.500000000000009C-26.255216234441704,-2.8969405565796262,-6.012481377553107,-81.90389243341671,0,-82C6.096945112570546,-82.09745769201857,29.528789255427125,0.2719580254216156,19.91858428704209,11.499999999999995" stroke="#8c564b" fill="#8c564b" fill-opacity="0.5"/><g id="dots"><circle cx="5.021051876504148e-15" cy="-82" r="1" stroke="none" fill="#8c564b"/><circle cx="19.91858428704209" cy="11.499999999999996" r="1" stroke="none" fill="#8c564b"/><circle cx="-16.45448267190433" cy="9.500000000000007" r="1" stroke="none" fill="#8c564b"/></g></g></g></g><text x="5" y="5" style="font-family: Arial, sans-serif; font-size: 12px; fill: black; font-weight: bold; dominant-baseline: hanging;">LeBron James</text></g><g id="Karl Malone" transform="translate(250,0)" clip-path="url(#serieClipPath)"><g id="Karl Malone" transform="translate(125, 145)"><g id="axes"><circle r="81" fill="none" stroke="LightGray" class="grid" id="30"/><circle r="76" fill="none" stroke="LightGray" class="grid" id="28"/><circle r="71" fill="none" stroke="LightGray" class="grid" id="26"/><circle r="65" fill="none" stroke="LightGray" class="grid" id="24"/><circle r="60" fill="none" stroke="LightGray" class="grid" id="22"/><circle r="54" fill="none" stroke="LightGray" class="grid" id="20"/><circle r="49" fill="none" stroke="LightGray" class="grid" id="18"/><circle r="43" fill="none" stroke="LightGray" class="grid" id="16"/><circle r="38" fill="none" stroke="LightGray" class="grid" id="14"/><circle r="33" fill="none" stroke="LightGray" class="grid" id="12"/><circle r="27" fill="none" stroke="LightGray" class="grid" id="10"/><circle r="22" fill="none" stroke="LightGray" class="grid" id="8"/><circle r="16" fill="none" stroke="LightGray" class="grid" id="6"/><circle r="11" fill="none" stroke="LightGray" class="grid" id="4"/><circle r="5" fill="none" stroke="LightGray" class="grid" id="2"/><circle r="0" fill="none" stroke="LightGray" class="grid" id="0"/><g><line x1="0" y1="0" x2="5.8170722959499274e-15" y2="-95" stroke="black"/><text text-anchor="middle" dy="0.35em" x="6.429395695523604e-15" y="-105" font-family="Arial, sans-serif" font-size="12">POINTS</text></g><g><line x1="0" y1="0" x2="82.27241335952168" y2="47.499999999999986" stroke="black"/><text text-anchor="middle" dy="0.35em" x="90.93266739736606" y="52.499999999999986" font-family="Arial, sans-serif" font-size="12">REBONDS</text></g><g><line x1="0" y1="0" x2="-82.27241335952165" y2="47.50000000000003" stroke="black"/><text text-anchor="middle" dy="0.35em" x="-90.93266739736605" y="52.500000000000036" font-family="Arial, sans-serif" font-size="12">PASSES</text></g><g id="y axis" fill="none" font-size="10" font-family="sans-serif" text-anchor="end" transform="translate(0, -95)"><path class="domain" stroke="currentColor" d="M-6,0H0V95H-6"/><g class="tick" opacity="1" transform="translate(0,1)"><line stroke="currentColor" x2="-6"/><text fill="currentColor" x="-9" dy="0.32em">30</text></g><g class="tick" opacity="1" transform="translate(0,7)"><line stroke="currentColor" x2="-6"/><text fill="currentColor" x="-9" dy="0.32em">28</text></g><g class="tick" opacity="1" transform="translate(0,13)"><line stroke="currentColor" x2="-6"/><text fill="currentColor" x="-9" dy="0.32em">26</text></g><g class="tick" opacity="1" transform="translate(0,20)"><line stroke="currentColor" x2="-6"/><text fill="currentColor" x="-9" dy="0.32em">24</text></g><g class="tick" opacity="1" transform="translate(0,26)"><line stroke="currentColor" x2="-6"/><text fill="currentColor" x="-9" dy="0.32em">22</text></g><g class="tick" opacity="1" transform="translate(0,32)"><line stroke="currentColor" x2="-6"/><text fill="currentColor" x="-9" dy="0.32em">20</text></g><g class="tick" opacity="1" transform="translate(0,38)"><line stroke="currentColor" x2="-6"/><text fill="currentColor" x="-9" dy="0.32em">18</text></g><g class="tick" opacity="1" transform="translate(0,45)"><line stroke="currentColor" x2="-6"/><text fill="currentColor" x="-9" dy="0.32em">16</text></g><g class="tick" opacity="1" transform="translate(0,51)"><line stroke="currentColor" x2="-6"/><text fill="currentColor" x="-9" dy="0.32em">14</text></g><g class="tick" opacity="1" transform="translate(0,57)"><line stroke="currentColor" x2="-6"/><text fill="currentColor" x="-9" dy="0.32em">12</text></g><g class="tick" opacity="1" transform="translate(0,64)"><line stroke="currentColor" x2="-6"/><text fill="currentColor" x="-9" dy="0.32em">10</text></g><g class="tick" opacity="1" transform="translate(0,70)"><line stroke="currentColor" x2="-6"/><text fill="currentColor" x="-9" dy="0.32em">8</text></g><g class="tick" opacity="1" transform="translate(0,76)"><line stroke="currentColor" x2="-6"/><text fill="currentColor" x="-9" dy="0.32em">6</text></g><g class="tick" opacity="1" transform="translate(0,82)"><line stroke="currentColor" x2="-6"/><text fill="currentColor" x="-9" dy="0.32em">4</text></g><g class="tick" opacity="1" transform="translate(0,89)"><line stroke="currentColor" x2="-6"/><text fill="currentColor" x="-9" dy="0.32em">2</text></g><g class="tick" opacity="1" transform="translate(0,95)"><line stroke="currentColor" x2="-6"/><text fill="currentColor" x="-9" dy="0.32em">0</text></g></g></g><g id="radars"><g id="3"><path d="M19.91858428704209,11.499999999999995C15.416877908369917,16.419448677191134,-5.297086736151032,13.15662202373633,-10.392304845413262,6.000000000000005C-17.951313668574848,-4.617203790180521,-4.847850567635463,-60.72278712377425,0,-61C5.105054053991901,-61.291920449661305,26.951418150913003,3.8145442331736823,19.91858428704209,11.499999999999995" stroke="#2ca02c" fill="#2ca02c" fill-opacity="0.5"/><g id="dots"><circle cx="3.7351727373994275e-15" cy="-61" r="1" stroke="none" fill="#2ca02c"/><circle cx="19.91858428704209" cy="11.499999999999996" r="1" stroke="none" fill="#2ca02c"/><circle cx="-10.392304845413262" cy="6.0000000000000036" r="1" stroke="none" fill="#2ca02c"/></g></g></g></g><text x="5" y="5" style="font-family: Arial, sans-serif; font-size: 12px; fill: black; font-weight: bold; dominant-baseline: hanging;">Karl Malone</text></g><g id="Kareem Abdul-Jabbar" transform="translate(500,0)" clip-path="url(#serieClipPath)"><g id="Kareem Abdul-Jabbar" transform="translate(125, 145)"><g id="axes"><circle r="81" fill="none" stroke="LightGray" class="grid" id="30"/><circle r="76" fill="none" stroke="LightGray" class="grid" id="28"/><circle r="71" fill="none" stroke="LightGray" class="grid" id="26"/><circle r="65" fill="none" stroke="LightGray" class="grid" id="24"/><circle r="60" fill="none" stroke="LightGray" class="grid" id="22"/><circle r="54" fill="none" stroke="LightGray" class="grid" id="20"/><circle r="49" fill="none" stroke="LightGray" class="grid" id="18"/><circle r="43" fill="none" stroke="LightGray" class="grid" id="16"/><circle r="38" fill="none" stroke="LightGray" class="grid" id="14"/><circle r="33" fill="none" stroke="LightGray" class="grid" id="12"/><circle r="27" fill="none" stroke="LightGray" class="grid" id="10"/><circle r="22" fill="none" stroke="LightGray" class="grid" id="8"/><circle r="16" fill="none" stroke="LightGray" class="grid" id="6"/><circle r="11" fill="none" stroke="LightGray" class="grid" id="4"/><circle r="5" fill="none" stroke="LightGray" class="grid" id="2"/><circle r="0" fill="none" stroke="LightGray" class="grid" id="0"/><g><line x1="0" y1="0" x2="5.8170722959499274e-15" y2="-95" stroke="black"/><text text-anchor="middle" dy="0.35em" x="6.429395695523604e-15" y="-105" font-family="Arial, sans-serif" font-size="12">POINTS</text></g><g><line x1="0" y1="0" x2="82.27241335952168" y2="47.499999999999986" stroke="black"/><text text-anchor="middle" dy="0.35em" x="90.93266739736606" y="52.499999999999986" font-family="Arial, sans-serif" font-size="12">REBONDS</text></g><g><line x1="0" y1="0" x2="-82.27241335952165" y2="47.50000000000003" stroke="black"/><text text-anchor="middle" dy="0.35em" x="-90.93266739736605" y="52.500000000000036" font-family="Arial, sans-serif" font-size="12">PASSES</text></g><g id="y axis" fill="none" font-size="10" font-family="sans-serif" text-anchor="end" transform="translate(0, -95)"><path class="domain" stroke="currentColor" d="M-6,0H0V95H-6"/><g class="tick" opacity="1" transform="translate(0,1)"><line stroke="currentColor" x2="-6"/><text fill="currentColor" x="-9" dy="0.32em">30</text></g><g class="tick" opacity="1" transform="translate(0,7)"><line stroke="currentColor" x2="-6"/><text fill="currentColor" x="-9" dy="0.32em">28</text></g><g class="tick" opacity="1" transform="translate(0,13)"><line stroke="currentColor" x2="-6"/><text fill="currentColor" x="-9" dy="0.32em">26</text></g><g class="tick" opacity="1" transform="translate(0,20)"><line stroke="currentColor" x2="-6"/><text fill="currentColor" x="-9" dy="0.32em">24</text></g><g class="tick" opacity="1" transform="translate(0,26)"><line stroke="currentColor" x2="-6"/><text fill="currentColor" x="-9" dy="0.32em">22</text></g><g class="tick" opacity="1" transform="translate(0,32)"><line stroke="currentColor" x2="-6"/><text fill="currentColor" x="-9" dy="0.32em">20</text></g><g class="tick" opacity="1" transform="translate(0,38)"><line stroke="currentColor" x2="-6"/><text fill="currentColor" x="-9" dy="0.32em">18</text></g><g class="tick" opacity="1" transform="translate(0,45)"><line stroke="currentColor" x2="-6"/><text fill="currentColor" x="-9" dy="0.32em">16</text></g><g class="tick" opacity="1" transform="translate(0,51)"><line stroke="currentColor" x2="-6"/><text fill="currentColor" x="-9" dy="0.32em">14</text></g><g class="tick" opacity="1" transform="translate(0,57)"><line stroke="currentColor" x2="-6"/><text fill="currentColor" x="-9" dy="0.32em">12</text></g><g class="tick" opacity="1" transform="translate(0,64)"><line stroke="currentColor" x2="-6"/><text fill="currentColor" x="-9" dy="0.32em">10</text></g><g class="tick" opacity="1" transform="translate(0,70)"><line stroke="currentColor" x2="-6"/><text fill="currentColor" x="-9" dy="0.32em">8</text></g><g class="tick" opacity="1" transform="translate(0,76)"><line stroke="currentColor" x2="-6"/><text fill="currentColor" x="-9" dy="0.32em">6</text></g><g class="tick" opacity="1" transform="translate(0,82)"><line stroke="currentColor" x2="-6"/><text fill="currentColor" x="-9" dy="0.32em">4</text></g><g class="tick" opacity="1" transform="translate(0,89)"><line stroke="currentColor" x2="-6"/><text fill="currentColor" x="-9" dy="0.32em">2</text></g><g class="tick" opacity="1" transform="translate(0,95)"><line stroke="currentColor" x2="-6"/><text fill="currentColor" x="-9" dy="0.32em">0</text></g></g></g><g id="radars"><g id="1"><path d="M14.722431864335459,8.499999999999996C10.745074915662187,12.688757626800424,-4.356775369224136,10.67649838319746,-8.660254037844386,5.000000000000004C-16.040796372467046,-4.735295526174457,-3.807900170384458,-63.8562105094146,0,-64C3.9275375255949236,-64.1483070970328,21.757980646540418,1.090504447930461,14.722431864335459,8.499999999999996" stroke="#ff7f0e" fill="#ff7f0e" fill-opacity="0.5"/><g id="dots"><circle cx="3.91886975727153e-15" cy="-64" r="1" stroke="none" fill="#ff7f0e"/><circle cx="14.722431864335459" cy="8.499999999999996" r="1" stroke="none" fill="#ff7f0e"/><circle cx="-8.660254037844386" cy="5.0000000000000036" r="1" stroke="none" fill="#ff7f0e"/></g></g></g></g><text x="5" y="5" style="font-family: Arial, sans-serif; font-size: 12px; fill: black; font-weight: bold; dominant-baseline: hanging;">Kareem Abdul-Jabbar</text></g><g id="Robert Parish" transform="translate(750,0)" clip-path="url(#serieClipPath)"><g id="Robert Parish" transform="translate(125, 145)"><g id="axes"><circle r="81" fill="none" stroke="LightGray" class="grid" id="30"/><circle r="76" fill="none" stroke="LightGray" class="grid" id="28"/><circle r="71" fill="none" stroke="LightGray" class="grid" id="26"/><circle r="65" fill="none" stroke="LightGray" class="grid" id="24"/><circle r="60" fill="none" stroke="LightGray" class="grid" id="22"/><circle r="54" fill="none" stroke="LightGray" class="grid" id="20"/><circle r="49" fill="none" stroke="LightGray" class="grid" id="18"/><circle r="43" fill="none" stroke="LightGray" class="grid" id="16"/><circle r="38" fill="none" stroke="LightGray" class="grid" id="14"/><circle r="33" fill="none" stroke="LightGray" class="grid" id="12"/><circle r="27" fill="none" stroke="LightGray" class="grid" id="10"/><circle r="22" fill="none" stroke="LightGray" class="grid" id="8"/><circle r="16" fill="none" stroke="LightGray" class="grid" id="6"/><circle r="11" fill="none" stroke="LightGray" class="grid" id="4"/><circle r="5" fill="none" stroke="LightGray" class="grid" id="2"/><circle r="0" fill="none" stroke="LightGray" class="grid" id="0"/><g><line x1="0" y1="0" x2="5.8170722959499274e-15" y2="-95" stroke="black"/><text text-anchor="middle" dy="0.35em" x="6.429395695523604e-15" y="-105" font-family="Arial, sans-serif" font-size="12">POINTS</text></g><g><line x1="0" y1="0" x2="82.27241335952168" y2="47.499999999999986" stroke="black"/><text text-anchor="middle" dy="0.35em" x="90.93266739736606" y="52.499999999999986" font-family="Arial, sans-serif" font-size="12">REBONDS</text></g><g><line x1="0" y1="0" x2="-82.27241335952165" y2="47.50000000000003" stroke="black"/><text text-anchor="middle" dy="0.35em" x="-90.93266739736605" y="52.500000000000036" font-family="Arial, sans-serif" font-size="12">PASSES</text></g><g id="y axis" fill="none" font-size="10" font-family="sans-serif" text-anchor="end" transform="translate(0, -95)"><path class="domain" stroke="currentColor" d="M-6,0H0V95H-6"/><g class="tick" opacity="1" transform="translate(0,1)"><line stroke="currentColor" x2="-6"/><text fill="currentColor" x="-9" dy="0.32em">30</text></g><g class="tick" opacity="1" transform="translate(0,7)"><line stroke="currentColor" x2="-6"/><text fill="currentColor" x="-9" dy="0.32em">28</text></g><g class="tick" opacity="1" transform="translate(0,13)"><line stroke="currentColor" x2="-6"/><text fill="currentColor" x="-9" dy="0.32em">26</text></g><g class="tick" opacity="1" transform="translate(0,20)"><line stroke="currentColor" x2="-6"/><text fill="currentColor" x="-9" dy="0.32em">24</text></g><g class="tick" opacity="1" transform="translate(0,26)"><line stroke="currentColor" x2="-6"/><text fill="currentColor" x="-9" dy="0.32em">22</text></g><g class="tick" opacity="1" transform="translate(0,32)"><line stroke="currentColor" x2="-6"/><text fill="currentColor" x="-9" dy="0.32em">20</text></g><g class="tick" opacity="1" transform="translate(0,38)"><line stroke="currentColor" x2="-6"/><text fill="currentColor" x="-9" dy="0.32em">18</text></g><g class="tick" opacity="1" transform="translate(0,45)"><line stroke="currentColor" x2="-6"/><text fill="currentColor" x="-9" dy="0.32em">16</text></g><g class="tick" opacity="1" transform="translate(0,51)"><line stroke="currentColor" x2="-6"/><text fill="currentColor" x="-9" dy="0.32em">14</text></g><g class="tick" opacity="1" transform="translate(0,57)"><line stroke="currentColor" x2="-6"/><text fill="currentColor" x="-9" dy="0.32em">12</text></g><g class="tick" opacity="1" transform="translate(0,64)"><line stroke="currentColor" x2="-6"/><text fill="currentColor" x="-9" dy="0.32em">10</text></g><g class="tick" opacity="1" transform="translate(0,70)"><line stroke="currentColor" x2="-6"/><text fill="currentColor" x="-9" dy="0.32em">8</text></g><g class="tick" opacity="1" transform="translate(0,76)"><line stroke="currentColor" x2="-6"/><text fill="currentColor" x="-9" dy="0.32em">6</text></g><g class="tick" opacity="1" transform="translate(0,82)"><line stroke="currentColor" x2="-6"/><text fill="currentColor" x="-9" dy="0.32em">4</text></g><g class="tick" opacity="1" transform="translate(0,89)"><line stroke="currentColor" x2="-6"/><text fill="currentColor" x="-9" dy="0.32em">2</text></g><g class="tick" opacity="1" transform="translate(0,95)"><line stroke="currentColor" x2="-6"/><text fill="currentColor" x="-9" dy="0.32em">0</text></g></g></g><g id="radars"><g id="5"><path d="M20.784609690826528,11.999999999999995C18.226046265571085,14.408351032908959,2.229150273160137,7.668730111789073,-1.732050807568877,1.0000000000000009C-6.676104968312064,-7.323375204673095,-3.0135315152838587,-37.46783718555975,0,-38C3.5491183964209694,-38.62674268546453,24.5455571636304,8.45985647983721,20.784609690826528,11.999999999999995" stroke="#e377c2" fill="#e377c2" fill-opacity="0.5"/><g id="dots"><circle cx="2.326828918379971e-15" cy="-38" r="1" stroke="none" fill="#e377c2"/><circle cx="20.784609690826528" cy="11.999999999999996" r="1" stroke="none" fill="#e377c2"/><circle cx="-1.732050807568877" cy="1.0000000000000007" r="1" stroke="none" fill="#e377c2"/></g></g></g></g><text x="5" y="5" style="font-family: Arial, sans-serif; font-size: 12px; fill: black; font-weight: bold; dominant-baseline: hanging;">Robert Parish</text></g><g id="Dirk Nowitzki" transform="translate(0,300)" clip-path="url(#serieClipPath)"><g id="Dirk Nowitzki" transform="translate(125, 145)"><g id="axes"><circle r="81" fill="none" stroke="LightGray" class="grid" id="30"/><circle r="76" fill="none" stroke="LightGray" class="grid" id="28"/><circle r="71" fill="none" stroke="LightGray" class="grid" id="26"/><circle r="65" fill="none" stroke="LightGray" class="grid" id="24"/><circle r="60" fill="none" stroke="LightGray" class="grid" id="22"/><circle r="54" fill="none" stroke="LightGray" class="grid" id="20"/><circle r="49" fill="none" stroke="LightGray" class="grid" id="18"/><circle r="43" fill="none" stroke="LightGray" class="grid" id="16"/><circle r="38" fill="none" stroke="LightGray" class="grid" id="14"/><circle r="33" fill="none" stroke="LightGray" class="grid" id="12"/><circle r="27" fill="none" stroke="LightGray" class="grid" id="10"/><circle r="22" fill="none" stroke="LightGray" class="grid" id="8"/><circle r="16" fill="none" stroke="LightGray" class="grid" id="6"/><circle r="11" fill="none" stroke="LightGray" class="grid" id="4"/><circle r="5" fill="none" stroke="LightGray" class="grid" id="2"/><circle r="0" fill="none" stroke="LightGray" class="grid" id="0"/><g><line x1="0" y1="0" x2="5.8170722959499274e-15" y2="-95" stroke="black"/><text text-anchor="middle" dy="0.35em" x="6.429395695523604e-15" y="-105" font-family="Arial, sans-serif" font-size="12">POINTS</text></g><g><line x1="0" y1="0" x2="82.27241335952168" y2="47.499999999999986" stroke="black"/><text text-anchor="middle" dy="0.35em" x="90.93266739736606" y="52.499999999999986" font-family="Arial, sans-serif" font-size="12">REBONDS</text></g><g><line x1="0" y1="0" x2="-82.27241335952165" y2="47.50000000000003" stroke="black"/><text text-anchor="middle" dy="0.35em" x="-90.93266739736605" y="52.500000000000036" font-family="Arial, sans-serif" font-size="12">PASSES</text></g><g id="y axis" fill="none" font-size="10" font-family="sans-serif" text-anchor="end" transform="translate(0, -95)"><path class="domain" stroke="currentColor" d="M-6,0H0V95H-6"/><g class="tick" opacity="1" transform="translate(0,1)"><line stroke="currentColor" x2="-6"/><text fill="currentColor" x="-9" dy="0.32em">30</text></g><g class="tick" opacity="1" transform="translate(0,7)"><line stroke="currentColor" x2="-6"/><text fill="currentColor" x="-9" dy="0.32em">28</text></g><g class="tick" opacity="1" transform="translate(0,13)"><line stroke="currentColor" x2="-6"/><text fill="currentColor" x="-9" dy="0.32em">26</text></g><g class="tick" opacity="1" transform="translate(0,20)"><line stroke="currentColor" x2="-6"/><text fill="currentColor" x="-9" dy="0.32em">24</text></g><g class="tick" opacity="1" transform="translate(0,26)"><line stroke="currentColor" x2="-6"/><text fill="currentColor" x="-9" dy="0.32em">22</text></g><g class="tick" opacity="1" transform="translate(0,32)"><line stroke="currentColor" x2="-6"/><text fill="currentColor" x="-9" dy="0.32em">20</text></g><g class="tick" opacity="1" transform="translate(0,38)"><line stroke="currentColor" x2="-6"/><text fill="currentColor" x="-9" dy="0.32em">18</text></g><g class="tick" opacity="1" transform="translate(0,45)"><line stroke="currentColor" x2="-6"/><text fill="currentColor" x="-9" dy="0.32em">16</text></g><g class="tick" opacity="1" transform="translate(0,51)"><line stroke="currentColor" x2="-6"/><text fill="currentColor" x="-9" dy="0.32em">14</text></g><g class="tick" opacity="1" transform="translate(0,57)"><line stroke="currentColor" x2="-6"/><text fill="currentColor" x="-9" dy="0.32em">12</text></g><g class="tick" opacity="1" transform="translate(0,64)"><line stroke="currentColor" x2="-6"/><text fill="currentColor" x="-9" dy="0.32em">10</text></g><g class="tick" opacity="1" transform="translate(0,70)"><line stroke="currentColor" x2="-6"/><text fill="currentColor" x="-9" dy="0.32em">8</text></g><g class="tick" opacity="1" transform="translate(0,76)"><line stroke="currentColor" x2="-6"/><text fill="currentColor" x="-9" dy="0.32em">6</text></g><g class="tick" opacity="1" transform="translate(0,82)"><line stroke="currentColor" x2="-6"/><text fill="currentColor" x="-9" dy="0.32em">4</text></g><g class="tick" opacity="1" transform="translate(0,89)"><line stroke="currentColor" x2="-6"/><text fill="currentColor" x="-9" dy="0.32em">2</text></g><g class="tick" opacity="1" transform="translate(0,95)"><line stroke="currentColor" x2="-6"/><text fill="currentColor" x="-9" dy="0.32em">0</text></g></g></g><g id="radars"><g id="4"><path d="M15.588457268119896,8.999999999999996C12.98104475112606,11.5099637520526,-0.06809504369294547,7.330974285680876,-3.464101615137754,2.0000000000000018C-8.299234979777767,-5.590082967291587,-2.8330379424166505,-38.6731525171758,0,-39C3.1375841881898245,-39.36198297195557,19.699885164467755,5.0422315526395005,15.588457268119896,8.999999999999996" stroke="#1f77b4" fill="#1f77b4" fill-opacity="0.5"/><g id="dots"><circle cx="2.388061258337339e-15" cy="-39" r="1" stroke="none" fill="#1f77b4"/><circle cx="15.588457268119896" cy="8.999999999999996" r="1" stroke="none" fill="#1f77b4"/><circle cx="-3.464101615137754" cy="2.0000000000000013" r="1" stroke="none" fill="#1f77b4"/></g></g></g></g><text x="5" y="5" style="font-family: Arial, sans-serif; font-size: 12px; fill: black; font-weight: bold; dominant-baseline: hanging;">Dirk Nowitzki</text></g><g id="Kevin Willis" transform="translate(250,300)" clip-path="url(#serieClipPath)"><g id="Kevin Willis" transform="translate(125, 145)"><g id="axes"><circle r="81" fill="none" stroke="LightGray" class="grid" id="30"/><circle r="76" fill="none" stroke="LightGray" class="grid" id="28"/><circle r="71" fill="none" stroke="LightGray" class="grid" id="26"/><circle r="65" fill="none" stroke="LightGray" class="grid" id="24"/><circle r="60" fill="none" stroke="LightGray" class="grid" id="22"/><circle r="54" fill="none" stroke="LightGray" class="grid" id="20"/><circle r="49" fill="none" stroke="LightGray" class="grid" id="18"/><circle r="43" fill="none" stroke="LightGray" class="grid" id="16"/><circle r="38" fill="none" stroke="LightGray" class="grid" id="14"/><circle r="33" fill="none" stroke="LightGray" class="grid" id="12"/><circle r="27" fill="none" stroke="LightGray" class="grid" id="10"/><circle r="22" fill="none" stroke="LightGray" class="grid" id="8"/><circle r="16" fill="none" stroke="LightGray" class="grid" id="6"/><circle r="11" fill="none" stroke="LightGray" class="grid" id="4"/><circle r="5" fill="none" stroke="LightGray" class="grid" id="2"/><circle r="0" fill="none" stroke="LightGray" class="grid" id="0"/><g><line x1="0" y1="0" x2="5.8170722959499274e-15" y2="-95" stroke="black"/><text text-anchor="middle" dy="0.35em" x="6.429395695523604e-15" y="-105" font-family="Arial, sans-serif" font-size="12">POINTS</text></g><g><line x1="0" y1="0" x2="82.27241335952168" y2="47.499999999999986" stroke="black"/><text text-anchor="middle" dy="0.35em" x="90.93266739736606" y="52.499999999999986" font-family="Arial, sans-serif" font-size="12">REBONDS</text></g><g><line x1="0" y1="0" x2="-82.27241335952165" y2="47.50000000000003" stroke="black"/><text text-anchor="middle" dy="0.35em" x="-90.93266739736605" y="52.500000000000036" font-family="Arial, sans-serif" font-size="12">PASSES</text></g><g id="y axis" fill="none" font-size="10" font-family="sans-serif" text-anchor="end" transform="translate(0, -95)"><path class="domain" stroke="currentColor" d="M-6,0H0V95H-6"/><g class="tick" opacity="1" transform="translate(0,1)"><line stroke="currentColor" x2="-6"/><text fill="currentColor" x="-9" dy="0.32em">30</text></g><g class="tick" opacity="1" transform="translate(0,7)"><line stroke="currentColor" x2="-6"/><text fill="currentColor" x="-9" dy="0.32em">28</text></g><g class="tick" opacity="1" transform="translate(0,13)"><line stroke="currentColor" x2="-6"/><text fill="currentColor" x="-9" dy="0.32em">26</text></g><g class="tick" opacity="1" transform="translate(0,20)"><line stroke="currentColor" x2="-6"/><text fill="currentColor" x="-9" dy="0.32em">24</text></g><g class="tick" opacity="1" transform="translate(0,26)"><line stroke="currentColor" x2="-6"/><text fill="currentColor" x="-9" dy="0.32em">22</text></g><g class="tick" opacity="1" transform="translate(0,32)"><line stroke="currentColor" x2="-6"/><text fill="currentColor" x="-9" dy="0.32em">20</text></g><g class="tick" opacity="1" transform="translate(0,38)"><line stroke="currentColor" x2="-6"/><text fill="currentColor" x="-9" dy="0.32em">18</text></g><g class="tick" opacity="1" transform="translate(0,45)"><line stroke="currentColor" x2="-6"/><text fill="currentColor" x="-9" dy="0.32em">16</text></g><g class="tick" opacity="1" transform="translate(0,51)"><line stroke="currentColor" x2="-6"/><text fill="currentColor" x="-9" dy="0.32em">14</text></g><g class="tick" opacity="1" transform="translate(0,57)"><line stroke="currentColor" x2="-6"/><text fill="currentColor" x="-9" dy="0.32em">12</text></g><g class="tick" opacity="1" transform="translate(0,64)"><line stroke="currentColor" x2="-6"/><text fill="currentColor" x="-9" dy="0.32em">10</text></g><g class="tick" opacity="1" transform="translate(0,70)"><line stroke="currentColor" x2="-6"/><text fill="currentColor" x="-9" dy="0.32em">8</text></g><g class="tick" opacity="1" transform="translate(0,76)"><line stroke="currentColor" x2="-6"/><text fill="currentColor" x="-9" dy="0.32em">6</text></g><g class="tick" opacity="1" transform="translate(0,82)"><line stroke="currentColor" x2="-6"/><text fill="currentColor" x="-9" dy="0.32em">4</text></g><g class="tick" opacity="1" transform="translate(0,89)"><line stroke="currentColor" x2="-6"/><text fill="currentColor" x="-9" dy="0.32em">2</text></g><g class="tick" opacity="1" transform="translate(0,95)"><line stroke="currentColor" x2="-6"/><text fill="currentColor" x="-9" dy="0.32em">0</text></g></g></g><g id="radars"><g id="7"><path d="M15.588457268119896,8.999999999999996C13.766601910165207,10.816756451686592,1.151420555142078,5.856564655892657,-1.732050807568877,1.0000000000000009C-5.101878851662139,-4.675724055047519,-2.287797068203403,-24.579709482681093,0,-25C2.740971274670647,-25.503543015680265,18.13935458445336,6.4562419915477545,15.588457268119896,8.999999999999996" stroke="#9467bd" fill="#9467bd" fill-opacity="0.5"/><g id="dots"><circle cx="1.5308084989341915e-15" cy="-25" r="1" stroke="none" fill="#9467bd"/><circle cx="15.588457268119896" cy="8.999999999999996" r="1" stroke="none" fill="#9467bd"/><circle cx="-1.732050807568877" cy="1.0000000000000007" r="1" stroke="none" fill="#9467bd"/></g></g></g></g><text x="5" y="5" style="font-family: Arial, sans-serif; font-size: 12px; fill: black; font-weight: bold; dominant-baseline: hanging;">Kevin Willis</text></g><g id="Kevin Garnett" transform="translate(500,300)" clip-path="url(#serieClipPath)"><g id="Kevin Garnett" transform="translate(125, 145)"><g id="axes"><circle r="81" fill="none" stroke="LightGray" class="grid" id="30"/><circle r="76" fill="none" stroke="LightGray" class="grid" id="28"/><circle r="71" fill="none" stroke="LightGray" class="grid" id="26"/><circle r="65" fill="none" stroke="LightGray" class="grid" id="24"/><circle r="60" fill="none" stroke="LightGray" class="grid" id="22"/><circle r="54" fill="none" stroke="LightGray" class="grid" id="20"/><circle r="49" fill="none" stroke="LightGray" class="grid" id="18"/><circle r="43" fill="none" stroke="LightGray" class="grid" id="16"/><circle r="38" fill="none" stroke="LightGray" class="grid" id="14"/><circle r="33" fill="none" stroke="LightGray" class="grid" id="12"/><circle r="27" fill="none" stroke="LightGray" class="grid" id="10"/><circle r="22" fill="none" stroke="LightGray" class="grid" id="8"/><circle r="16" fill="none" stroke="LightGray" class="grid" id="6"/><circle r="11" fill="none" stroke="LightGray" class="grid" id="4"/><circle r="5" fill="none" stroke="LightGray" class="grid" id="2"/><circle r="0" fill="none" stroke="LightGray" class="grid" id="0"/><g><line x1="0" y1="0" x2="5.8170722959499274e-15" y2="-95" stroke="black"/><text text-anchor="middle" dy="0.35em" x="6.429395695523604e-15" y="-105" font-family="Arial, sans-serif" font-size="12">POINTS</text></g><g><line x1="0" y1="0" x2="82.27241335952168" y2="47.499999999999986" stroke="black"/><text text-anchor="middle" dy="0.35em" x="90.93266739736606" y="52.499999999999986" font-family="Arial, sans-serif" font-size="12">REBONDS</text></g><g><line x1="0" y1="0" x2="-82.27241335952165" y2="47.50000000000003" stroke="black"/><text text-anchor="middle" dy="0.35em" x="-90.93266739736605" y="52.500000000000036" font-family="Arial, sans-serif" font-size="12">PASSES</text></g><g id="y axis" fill="none" font-size="10" font-family="sans-serif" text-anchor="end" transform="translate(0, -95)"><path class="domain" stroke="currentColor" d="M-6,0H0V95H-6"/><g class="tick" opacity="1" transform="translate(0,1)"><line stroke="currentColor" x2="-6"/><text fill="currentColor" x="-9" dy="0.32em">30</text></g><g class="tick" opacity="1" transform="translate(0,7)"><line stroke="currentColor" x2="-6"/><text fill="currentColor" x="-9" dy="0.32em">28</text></g><g class="tick" opacity="1" transform="translate(0,13)"><line stroke="currentColor" x2="-6"/><text fill="currentColor" x="-9" dy="0.32em">26</text></g><g class="tick" opacity="1" transform="translate(0,20)"><line stroke="currentColor" x2="-6"/><text fill="currentColor" x="-9" dy="0.32em">24</text></g><g class="tick" opacity="1" transform="translate(0,26)"><line stroke="currentColor" x2="-6"/><text fill="currentColor" x="-9" dy="0.32em">22</text></g><g class="tick" opacity="1" transform="translate(0,32)"><line stroke="currentColor" x2="-6"/><text fill="currentColor" x="-9" dy="0.32em">20</text></g><g class="tick" opacity="1" transform="translate(0,38)"><line stroke="currentColor" x2="-6"/><text fill="currentColor" x="-9" dy="0.32em">18</text></g><g class="tick" opacity="1" transform="translate(0,45)"><line stroke="currentColor" x2="-6"/><text fill="currentColor" x="-9" dy="0.32em">16</text></g><g class="tick" opacity="1" transform="translate(0,51)"><line stroke="currentColor" x2="-6"/><text fill="currentColor" x="-9" dy="0.32em">14</text></g><g class="tick" opacity="1" transform="translate(0,57)"><line stroke="currentColor" x2="-6"/><text fill="currentColor" x="-9" dy="0.32em">12</text></g><g class="tick" opacity="1" transform="translate(0,64)"><line stroke="currentColor" x2="-6"/><text fill="currentColor" x="-9" dy="0.32em">10</text></g><g class="tick" opacity="1" transform="translate(0,70)"><line stroke="currentColor" x2="-6"/><text fill="currentColor" x="-9" dy="0.32em">8</text></g><g class="tick" opacity="1" transform="translate(0,76)"><line stroke="currentColor" x2="-6"/><text fill="currentColor" x="-9" dy="0.32em">6</text></g><g class="tick" opacity="1" transform="translate(0,82)"><line stroke="currentColor" x2="-6"/><text fill="currentColor" x="-9" dy="0.32em">4</text></g><g class="tick" opacity="1" transform="translate(0,89)"><line stroke="currentColor" x2="-6"/><text fill="currentColor" x="-9" dy="0.32em">2</text></g><g class="tick" opacity="1" transform="translate(0,95)"><line stroke="currentColor" x2="-6"/><text fill="currentColor" x="-9" dy="0.32em">0</text></g></g></g><g id="radars"><g id="6"><path d="M15.588457268119896,8.999999999999996C13.884684828637505,10.992481859748004,-0.8081532626336213,6.55793712971833,-3.464101615137754,2.0000000000000018C-6.183794543268121,-2.667330735882021,-2.5376469136556237,-18.558500975359006,0,-19C3.1138612351512975,-19.541748613957598,17.729275997584683,6.496413027573528,15.588457268119896,8.999999999999996" stroke="#d62728" fill="#d62728" fill-opacity="0.5"/><g id="dots"><circle cx="1.1634144591899855e-15" cy="-19" r="1" stroke="none" fill="#d62728"/><circle cx="15.588457268119896" cy="8.999999999999996" r="1" stroke="none" fill="#d62728"/><circle cx="-3.464101615137754" cy="2.0000000000000013" r="1" stroke="none" fill="#d62728"/></g></g></g></g><text x="5" y="5" style="font-family: Arial, sans-serif; font-size: 12px; fill: black; font-weight: bold; dominant-baseline: hanging;">Kevin Garnett</text></g><g id="Vince Carter" transform="translate(750,300)" clip-path="url(#serieClipPath)"><g id="Vince Carter" transform="translate(125, 145)"><g id="axes"><circle r="81" fill="none" stroke="LightGray" class="grid" id="30"/><circle r="76" fill="none" stroke="LightGray" class="grid" id="28"/><circle r="71" fill="none" stroke="LightGray" class="grid" id="26"/><circle r="65" fill="none" stroke="LightGray" class="grid" id="24"/><circle r="60" fill="none" stroke="LightGray" class="grid" id="22"/><circle r="54" fill="none" stroke="LightGray" class="grid" id="20"/><circle r="49" fill="none" stroke="LightGray" class="grid" id="18"/><circle r="43" fill="none" stroke="LightGray" class="grid" id="16"/><circle r="38" fill="none" stroke="LightGray" class="grid" id="14"/><circle r="33" fill="none" stroke="LightGray" class="grid" id="12"/><circle r="27" fill="none" stroke="LightGray" class="grid" id="10"/><circle r="22" fill="none" stroke="LightGray" class="grid" id="8"/><circle r="16" fill="none" stroke="LightGray" class="grid" id="6"/><circle r="11" fill="none" stroke="LightGray" class="grid" id="4"/><circle r="5" fill="none" stroke="LightGray" class="grid" id="2"/><circle r="0" fill="none" stroke="LightGray" class="grid" id="0"/><g><line x1="0" y1="0" x2="5.8170722959499274e-15" y2="-95" stroke="black"/><text text-anchor="middle" dy="0.35em" x="6.429395695523604e-15" y="-105" font-family="Arial, sans-serif" font-size="12">POINTS</text></g><g><line x1="0" y1="0" x2="82.27241335952168" y2="47.499999999999986" stroke="black"/><text text-anchor="middle" dy="0.35em" x="90.93266739736606" y="52.499999999999986" font-family="Arial, sans-serif" font-size="12">REBONDS</text></g><g><line x1="0" y1="0" x2="-82.27241335952165" y2="47.50000000000003" stroke="black"/><text text-anchor="middle" dy="0.35em" x="-90.93266739736605" y="52.500000000000036" font-family="Arial, sans-serif" font-size="12">PASSES</text></g><g id="y axis" fill="none" font-size="10" font-family="sans-serif" text-anchor="end" transform="translate(0, -95)"><path class="domain" stroke="currentColor" d="M-6,0H0V95H-6"/><g class="tick" opacity="1" transform="translate(0,1)"><line stroke="currentColor" x2="-6"/><text fill="currentColor" x="-9" dy="0.32em">30</text></g><g class="tick" opacity="1" transform="translate(0,7)"><line stroke="currentColor" x2="-6"/><text fill="currentColor" x="-9" dy="0.32em">28</text></g><g class="tick" opacity="1" transform="translate(0,13)"><line stroke="currentColor" x2="-6"/><text fill="currentColor" x="-9" dy="0.32em">26</text></g><g class="tick" opacity="1" transform="translate(0,20)"><line stroke="currentColor" x2="-6"/><text fill="currentColor" x="-9" dy="0.32em">24</text></g><g class="tick" opacity="1" transform="translate(0,26)"><line stroke="currentColor" x2="-6"/><text fill="currentColor" x="-9" dy="0.32em">22</text></g><g class="tick" opacity="1" transform="translate(0,32)"><line stroke="currentColor" x2="-6"/><text fill="currentColor" x="-9" dy="0.32em">20</text></g><g class="tick" opacity="1" transform="translate(0,38)"><line stroke="currentColor" x2="-6"/><text fill="currentColor" x="-9" dy="0.32em">18</text></g><g class="tick" opacity="1" transform="translate(0,45)"><line stroke="currentColor" x2="-6"/><text fill="currentColor" x="-9" dy="0.32em">16</text></g><g class="tick" opacity="1" transform="translate(0,51)"><line stroke="currentColor" x2="-6"/><text fill="currentColor" x="-9" dy="0.32em">14</text></g><g class="tick" opacity="1" transform="translate(0,57)"><line stroke="currentColor" x2="-6"/><text fill="currentColor" x="-9" dy="0.32em">12</text></g><g class="tick" opacity="1" transform="translate(0,64)"><line stroke="currentColor" x2="-6"/><text fill="currentColor" x="-9" dy="0.32em">10</text></g><g class="tick" opacity="1" transform="translate(0,70)"><line stroke="currentColor" x2="-6"/><text fill="currentColor" x="-9" dy="0.32em">8</text></g><g class="tick" opacity="1" transform="translate(0,76)"><line stroke="currentColor" x2="-6"/><text fill="currentColor" x="-9" dy="0.32em">6</text></g><g class="tick" opacity="1" transform="translate(0,82)"><line stroke="currentColor" x2="-6"/><text fill="currentColor" x="-9" dy="0.32em">4</text></g><g class="tick" opacity="1" transform="translate(0,89)"><line stroke="currentColor" x2="-6"/><text fill="currentColor" x="-9" dy="0.32em">2</text></g><g class="tick" opacity="1" transform="translate(0,95)"><line stroke="currentColor" x2="-6"/><text fill="currentColor" x="-9" dy="0.32em">0</text></g></g></g><g id="radars"><g id="2"><path d="M4.330127018922194,2.499999999999999C3.2239312764957693,3.7063623293697017,-1.3907557472523193,3.121449313396664,-2.5980762113533156,1.5000000000000013C-4.517450294679486,-1.0777478988380864,-1.1247157133574492,-15.95355836965003,0,-16C1.1655568975314496,-16.048128039774085,6.15259439627806,0.5125072749558595,4.330127018922194,2.499999999999999" stroke="#7f7f7f" fill="#7f7f7f" fill-opacity="0.5"/><g id="dots"><circle cx="9.797174393178826e-16" cy="-16" r="1" stroke="none" fill="#7f7f7f"/><circle cx="4.330127018922194" cy="2.499999999999999" r="1" stroke="none" fill="#7f7f7f"/><circle cx="-2.5980762113533156" cy="1.5000000000000009" r="1" stroke="none" fill="#7f7f7f"/></g></g></g></g><text x="5" y="5" style="font-family: Arial, sans-serif; font-size: 12px; fill: black; font-weight: bold; dominant-baseline: hanging;">Vince Carter</text></g><g id="grid"><rect x="0" y="0" width="250" height="300" fill="none" stroke="#ccc"/><rect x="250" y="0" width="250" height="300" fill="none" stroke="#ccc"/><rect x="500" y="0" width="250" height="300" fill="none" stroke="#ccc"/><rect x="750" y="0" width="250" height="300" fill="none" stroke="#ccc"/><rect x="0" y="300" width="250" height="300" fill="none" stroke="#ccc"/><rect x="250" y="300" width="250" height="300" fill="none" stroke="#ccc"/><rect x="500" y="300" width="250" height="300" fill="none" stroke="#ccc"/><rect x="750" y="300" width="250" height="300" fill="none" stroke="#ccc"/></g></svg>