<svg xmlns="http://www.w3.org/2000/svg" width="805" height="600"><rect width="805" height="600" x="0" y="0" fill="#FFFFFF" id="backgorund"/><g transform="translate(402.5,300)" id="viz"><path fill="rgb(8, 48, 107)" display="" d="M0.999992072947904,-191.3307201165001A191.33333333333334,191.33333333333334,0,0,1,49.6705486227048,-184.77359401160103L24.616728096642145,-93.47973653290019A96.66666666666667,96.66666666666667,0,0,0,0.9999920729479188,-96.66149419649216Z"><title>61</title></path><path fill="rgb(24, 100, 170)" display="" d="M51.59922466078025,-184.24430644893962A191.33333333333334,191.33333333333334,0,0,1,93.88575179752317,-166.71505647018907L47.00182587798427,-84.47054402914719A96.66666666666667,96.66666666666667,0,0,0,26.54540413471764,-92.95044897023877Z"><title>57</title></path><path fill="rgb(34, 113, 180)" display="" d="M95.62325117359282,-165.72458562155595A191.33333333333334,191.33333333333334,0,0,1,131.64249833784757,-138.84774782406177L66.14934830947848,-70.48906413533763A96.66666666666667,96.66666666666667,0,0,0,48.73932525405397,-83.48007318051405Z"><title>56</title></path><path fill="rgb(47, 126, 188)" display="" d="M133.08664539073757,-137.4641380982128A191.33333333333334,191.33333333333334,0,0,1,161.0281989316508,-103.33616788556245L81.08741994183518,-52.62389924379336A96.66666666666667,96.66666666666667,0,0,0,67.59349536236846,-69.10545440948869Z"><title>55</title></path><path fill="rgb(91, 163, 207)" display="" d="M162.09954743271118,-101.64733723297756A191.33333333333334,191.33333333333334,0,0,1,180.23844343444904,-64.20707089387713L90.89400384892096,-32.9047794211842A96.66666666666667,96.66666666666667,0,0,0,82.15876844289556,-50.93506859120849Z"><title>52</title></path><path fill="rgb(109, 174, 213)" display="" d="M180.89973633155685,-62.319578301025615A191.33333333333334,191.33333333333334,0,0,1,136.3671679091034,134.21043163962648L69.24246649930562,67.45313393413966A96.66666666666667,96.66666666666667,0,0,0,91.55529674602876,-31.017286828332686Z"><title>51</title></path><path fill="rgb(165, 204, 228)" display="" d="M134.95685177166465,135.62850955579134A191.33333333333334,191.33333333333334,0,0,1,69.51993837298423,178.25662011005628L35.583820656536346,89.87900840534404A96.66666666666667,96.66666666666667,0,0,0,67.8321503618669,68.87121185030452Z"><title>48</title></path><path fill="rgb(181, 212, 233)" display="" d="M67.65287100717616,178.9735552782333A191.33333333333334,191.33333333333334,0,0,1,31.51930914877458,188.71930901534273L16.412204215546122,95.26323528639816A96.66666666666667,96.66666666666667,0,0,0,33.716753290728235,90.59594357352105Z"><title>47</title></path><path fill="rgb(195, 219, 238)" display="" d="M29.544954082710245,189.03846204594183A191.33333333333334,191.33333333333334,0,0,1,-143.03388678024828,127.08167325377632L-71.93493077413304,64.574067387498A96.66666666666667,96.66666666666667,0,0,0,14.437849149481748,95.58238831699725Z"><title>46</title></path><path fill="rgb(207, 225, 242)" display="" d="M-144.35442383456092,125.57963514772769A191.33333333333334,191.33333333333334,0,0,1,-165.19726810878538,96.5313785970061L-83.21131350545032,49.19676563700206A96.66666666666667,96.66666666666667,0,0,0,-73.25546782844563,63.07202928144942Z"><title>45</title></path><path fill="rgb(217, 232, 245)" display="" d="M-166.19726018173333,94.79934151949413A191.33333333333334,191.33333333333334,0,0,1,-130.0369532572072,-140.3525391007493L-66.06019965045625,-70.57261839117425A96.66666666666667,96.66666666666667,0,0,0,-84.21130557839822,47.46472855949016Z"><title>44</title></path><path fill="rgb(227, 238, 249)" display="" d="M-128.56278111980168,-141.70411340249234A191.33333333333334,191.33333333333334,0,0,1,-69.12842965342264,-178.40881328593676L-35.38641624254319,-89.95691185203015A96.66666666666667,96.66666666666667,0,0,0,-64.5860275130508,-71.92419269291725Z"><title>43</title></path><path fill="rgb(237, 245, 252)" display="" d="M-67.25979284116416,-179.12164780229142A191.33333333333334,191.33333333333334,0,0,1,-35.241714194689166,-188.05974057480853L-18.291131555141522,-94.9203821677776A96.66666666666667,96.66666666666667,0,0,0,-33.51777943028467,-90.66974636838482Z"><title>42</title></path><path fill="rgb(247, 251, 255)" display="" d="M-33.274050063471314,-188.4178389559175A191.33333333333334,191.33333333333334,0,0,1,-0.9999920729480548,-191.3307201165001L-0.9999920729479735,-96.66149419649216A96.66666666666667,96.66666666666667,0,0,0,-16.323467423923628,-95.27848054888653Z"><title>41</title></path><path fill="rgb(8, 48, 107)" display="" d="M0.9999920729479248,-287.99826391118063A288,288,0,0,1,75.253215739616,-277.99452066694914L50.19984753543126,-186.7023114082877A193.33333333333334,193.33333333333334,0,0,0,0.9999920729479279,-193.33074715014118Z"><title>Hornets</title></path><path fill="rgb(24, 100, 170)" display="" d="M77.18189177769149,-277.46523310428773A288,288,0,0,1,141.75932336261747,-250.69562070322021L94.87624388585537,-168.45259310526944A193.33333333333334,193.33333333333334,0,0,0,52.12852357350676,-186.17302384562626Z"><title>Wizards</title></path><path fill="rgb(34, 113, 180)" display="" d="M143.49682273868717,-249.7051498545871A288,288,0,0,1,198.5181053483926,-208.64937538580003L133.02613773388248,-140.29192584530267A193.33333333333334,193.33333333333334,0,0,0,96.61374326192508,-167.46212225663632Z"><title>Warriors</title></path><path fill="rgb(47, 126, 188)" display="" d="M199.9622524012826,-207.26576565995106A288,288,0,0,1,242.65640153793902,-155.11889244272766L162.7170657995922,-104.40753936066574A193.33333333333334,193.33333333333334,0,0,0,134.47028478677245,-138.90831611945376Z"><title>Raptors</title></path><path fill="rgb(91, 163, 207)" display="" d="M243.7277500389994,-153.43006179014276A288,288,0,0,1,271.4688030630672,-96.17010431264818L182.12597650277218,-64.86837797177802A193.33333333333334,193.33333333333334,0,0,0,163.78841430065256,-102.71870870808088Z"><title>Bucks</title></path><path fill="rgb(109, 174, 213)" display="" d="M272.130095960175,-94.28261171979665A288,288,0,0,1,286.0466533518068,-33.485998659608235L191.9835627355648,-22.80546901813782A193.33333333333334,193.33333333333334,0,0,0,182.78726939988,-62.9808853789265Z"><title>Knicks</title></path><path fill="rgb(109, 174, 213)" display="" d="M286.27229452930413,-31.498783864259686A288,288,0,0,1,286.3407564853794,30.870231216831865L192.25444471599099,20.396231630469146A193.33333333333334,193.33333333333334,0,0,0,192.2092039130621,-20.818254222789264Z"><title>Heat</title></path><path fill="rgb(109, 174, 213)" display="" d="M286.11947854513596,32.85793659162869A288,288,0,0,1,272.33642641607827,93.68495528589426L182.92509594523682,62.5794459164004A193.33333333333334,193.33333333333334,0,0,0,192.03316677574753,22.383937005265977Z"><title>Magic</title></path><path fill="rgb(109, 174, 213)" display="" d="M271.6792788778573,95.57389511999295A288,288,0,0,1,244.73296973408176,151.82151864981793L164.46137769943454,101.63775392530924A193.33333333333334,193.33333333333334,0,0,0,182.26794840701595,64.4683857504991Z"><title>Kings</title></path><path fill="rgb(109, 174, 213)" display="" d="M243.67276727748066,153.51736868294338A288,288,0,0,1,204.90876577448853,202.37687048864007L137.78527623459152,135.6207780199446A193.33333333333334,193.33333333333334,0,0,0,163.40117524283343,103.33360395843465Z"><title>Grizzlies</title></path><path fill="rgb(165, 204, 228)" display="" d="M203.4984496370498,203.79494840480496A288,288,0,0,1,158.03749369267015,240.76575875181928L106.36462488440121,161.44455503663912A193.33333333333334,193.33333333333334,0,0,0,136.3749600971528,137.03885593610946Z"><title>Jazz</title></path><path fill="rgb(165, 204, 228)" display="" d="M156.36172194654762,241.8574206219659A288,288,0,0,1,104.17239394865433,268.49974364793417L70.23688891514949,180.1237275133366A193.33333333333334,193.33333333333334,0,0,0,104.68885313827867,162.5362169067857Z"><title>Rockets</title></path><path fill="rgb(181, 212, 233)" display="" d="M102.30532658284636,269.21667881611114A288,288,0,0,1,46.945301212739025,284.14809289179686L31.838469023304896,190.6937064195613A193.33333333333334,193.33333333333334,0,0,0,68.36982154934147,180.8406626815136Z"><title>Hawks</title></path><path fill="rgb(195, 219, 238)" display="" d="M44.970946146674656,284.46724592239593A288,288,0,0,1,-11.010456194979978,287.7894540360686L-7.062804034805518,193.204281983976A193.33333333333334,193.33333333333334,0,0,0,29.864113957240516,191.01285945016042Z"><title>Pacers</title></path><path fill="rgb(195, 219, 238)" display="" d="M-13.00870069333853,287.70605434413636A288,288,0,0,1,-68.51857806249971,279.7305926428018L-45.676935303015966,187.860041943735A193.33333333333334,193.33333333333334,0,0,0,-9.061048533164087,193.12088229204377Z"><title>Cavaliers</title></path><path fill="rgb(195, 219, 238)" display="" d="M-70.45947237513548,279.2480308840467A288,288,0,0,1,-123.24104326316163,260.2991457062576L-82.4340481837109,174.87825901987762A193.33333333333334,193.33333333333334,0,0,0,-47.61782961565174,187.37748018497993Z"><title>Suns</title></path><path fill="rgb(195, 219, 238)" display="" d="M-125.0456793722122,259.4370406675614A288,288,0,0,1,-172.95308291933267,230.2851083085887L-115.83976407993288,154.78671401539367A193.33333333333334,193.33333333333334,0,0,0,-84.23868429276148,174.01615398118142Z"><title>Mavericks</title></path><path fill="rgb(195, 219, 238)" display="" d="M-174.5480924515688,229.07850929652608A288,288,0,0,1,-215.63362948105583,190.90871597919966L-144.53595709606594,128.40223862574192A193.33333333333334,193.33333333333334,0,0,0,-117.43477361216904,153.58011500333106Z"><title>Lakers</title></path><path fill="rgb(207, 225, 242)" display="" d="M-216.95416653536859,189.4066778731509A288,288,0,0,1,-248.91381675642353,144.86515049434635L-166.92934232817424,97.5313921138266A193.33333333333334,193.33333333333334,0,0,0,-145.85649415037867,126.90020051969317Z"><title>Clippers</title></path><path fill="rgb(217, 232, 245)" display="" d="M-249.91380882937142,143.13311341683448A288,288,0,0,1,-272.0963012587717,94.38009769700263L-182.54925610318102,63.667471081809175A193.33333333333334,193.33333333333334,0,0,0,-167.92933440112213,95.7993550363147Z"><title>Timberwolves</title></path><path fill="rgb(217, 232, 245)" display="" d="M-272.74514859744494,92.48829069972959A288,288,0,0,1,-285.154666633149,40.3833641161511L-191.37690402613046,27.43462015685703A193.33333333333334,193.33333333333334,0,0,0,-183.19810344185427,61.77566408453611Z"><title>Thunder</title></path><path fill="rgb(217, 232, 245)" display="" d="M-285.4282270212727,38.40217727542047A288,288,0,0,1,-287.6030391427382,-15.115947732794238L-193.08382827242787,-9.819014076849111A193.33333333333334,193.33333333333334,0,0,0,-191.65046441425412,25.45343331612637Z"><title>Blazers</title></path><path fill="rgb(217, 232, 245)" display="" d="M-287.4911339856558,-17.112798708619163A288,288,0,0,1,-279.3503201035732,-70.05282762338139L-187.60651785595547,-46.707303880023275A193.33333333333334,193.33333333333334,0,0,0,-192.9719231153454,-11.815865052674054Z"><title>76ers</title></path><path fill="rgb(217, 232, 245)" display="" d="M-278.8571131518982,-71.99104419710429A288,288,0,0,1,-260.7035754709633,-122.38319221468181L-175.14877173649592,-81.85771519517647A193.33333333333334,193.33333333333334,0,0,0,-187.11331090428052,-48.64552045374619Z"><title>Pistons</title></path><path fill="rgb(217, 232, 245)" display="" d="M-259.84741789635973,-124.1906575093095A288,288,0,0,1,-232.35661057462465,-170.15994100337548L-156.1741158980334,-113.96237669180744A193.33333333333334,193.33333333333334,0,0,0,-174.29261416189235,-83.66518048980417Z"><title>Pelicans</title></path><path fill="rgb(217, 232, 245)" display="" d="M-231.1693581621123,-171.76940311626237A288,288,0,0,1,-195.3641551120919,-211.60540375268891L-131.38855654216687,-141.82674285036515A193.33333333333334,193.33333333333334,0,0,0,-154.98686348552104,-115.57183880469431Z"><title>Spurs</title></path><path fill="rgb(227, 238, 249)" display="" d="M-193.88998297468683,-212.95697805443157A288,288,0,0,1,-152.1776757406091,-244.5116664009839L-102.43523181157897,-163.965853339913A193.33333333333334,193.33333333333334,0,0,0,-129.91438440476162,-143.17831715210792Z"><title>Celtics</title></path><path fill="rgb(227, 238, 249)" display="" d="M-150.47603240346467,-245.56254533644062A288,288,0,0,1,-103.58268368812854,-268.72779469188725L-69.84127945583133,-180.27749016932273A193.33333333333334,193.33333333333334,0,0,0,-100.73358847443454,-165.01673227536975Z"><title>Nuggets</title></path><path fill="rgb(237, 245, 252)" display="" d="M-101.71404687586971,-269.44062920824206A288,288,0,0,1,-52.550096868467065,-283.1651237690029L-35.599820254875134,-190.02744690070003A193.33333333333334,193.33333333333334,0,0,0,-67.97264264357256,-180.9903246856775Z"><title>Nets</title></path><path fill="rgb(247, 251, 255)" display="" d="M-50.58243273724909,-283.52322215011185A288,288,0,0,1,-0.9999920729482158,-287.99826391118063L-0.9999920729481232,-193.33074715014118A193.33333333333334,193.33333333333334,0,0,0,-33.63215612365715,-190.385545281809Z"><title>Bulls</title></path></g><g id="labels" transform="translate(402.5,300)" text-anchor="middle"><text transform="rotate(90) translate(48.333333333333336,0) rotate(180)"><tspan x="0" y="4" style="font-family: Arial, sans-serif; font-size: 10px; fill: black; font-weight: normal; font-style: italic;"/></text><text transform="rotate(-82.32704402515724) translate(145,0) rotate(0)"><tspan x="0" y="4" style="font-family: Arial, sans-serif; font-size: 10px; fill: black; font-weight: normal; font-style: italic;">61</tspan></text><text transform="rotate(-67.48427672955975) translate(145,0) rotate(0)"><tspan x="0" y="4" style="font-family: Arial, sans-serif; font-size: 10px; fill: black; font-weight: normal; font-style: italic;">57</tspan></text><text transform="rotate(-53.27044025157233) translate(145,0) rotate(0)"><tspan x="0" y="4" style="font-family: Arial, sans-serif; font-size: 10px; fill: black; font-weight: normal; font-style: italic;">56</tspan></text><text transform="rotate(-39.30817610062893) translate(145,0) rotate(0)"><tspan x="0" y="4" style="font-family: Arial, sans-serif; font-size: 10px; fill: black; font-weight: normal; font-style: italic;">55</tspan></text><text transform="rotate(-25.849056603773576) translate(145,0) rotate(0)"><tspan x="0" y="4" style="font-family: Arial, sans-serif; font-size: 10px; fill: black; font-weight: normal; font-style: italic;">52</tspan></text><text transform="rotate(12.767295597484278) translate(145,0) rotate(0)"><tspan x="0" y="4" style="font-family: Arial, sans-serif; font-size: 10px; fill: black; font-weight: normal; font-style: italic;">51</tspan></text><text transform="rotate(56.9182389937107) translate(145,0) rotate(0)"><tspan x="0" y="4" style="font-family: Arial, sans-serif; font-size: 10px; fill: black; font-weight: normal; font-style: italic;">48</tspan></text><text transform="rotate(74.90566037735849) translate(145,0) rotate(0)"><tspan x="0" y="4" style="font-family: Arial, sans-serif; font-size: 10px; fill: black; font-weight: normal; font-style: italic;">47</tspan></text><text transform="rotate(109.74842767295596) translate(145,0) rotate(180)"><tspan x="0" y="4" style="font-family: Arial, sans-serif; font-size: 10px; fill: black; font-weight: normal; font-style: italic;">46</tspan></text><text transform="rotate(144.33962264150938) translate(145,0) rotate(180)"><tspan x="0" y="4" style="font-family: Arial, sans-serif; font-size: 10px; fill: black; font-weight: normal; font-style: italic;">45</tspan></text><text transform="rotate(188.7421383647798) translate(145,0) rotate(180)"><tspan x="0" y="4" style="font-family: Arial, sans-serif; font-size: 10px; fill: black; font-weight: normal; font-style: italic;">44</tspan></text><text transform="rotate(238.30188679245276) translate(145,0) rotate(180)"><tspan x="0" y="4" style="font-family: Arial, sans-serif; font-size: 10px; fill: black; font-weight: normal; font-style: italic;">43</tspan></text><text transform="rotate(254.40251572327043) translate(145,0) rotate(180)"><tspan x="0" y="4" style="font-family: Arial, sans-serif; font-size: 10px; fill: black; font-weight: normal; font-style: italic;">42</tspan></text><text transform="rotate(264.8427672955974) translate(145,0) rotate(180)"><tspan x="0" y="4" style="font-family: Arial, sans-serif; font-size: 10px; fill: black; font-weight: normal; font-style: italic;">41</tspan></text><text transform="rotate(-82.32704402515724) translate(241.66666666666669,0) rotate(0)"><tspan x="0" y="-2" style="font-family: Arial, sans-serif; font-size: 10px; fill: black; font-weight: bold;">Hornets</tspan><tspan x="0" y="10" style="font-family: Arial, sans-serif; font-size: 10px; fill: black; font-weight: normal;">Charlotte</tspan></text><text transform="rotate(-67.48427672955975) translate(241.66666666666669,0) rotate(0)"><tspan x="0" y="-2" style="font-family: Arial, sans-serif; font-size: 10px; fill: black; font-weight: bold;">Wizards</tspan><tspan x="0" y="10" style="font-family: Arial, sans-serif; font-size: 10px; fill: black; font-weight: normal;">Washington DC</tspan></text><text transform="rotate(-53.27044025157233) translate(241.66666666666669,0) rotate(0)"><tspan x="0" y="-2" style="font-family: Arial, sans-serif; font-size: 10px; fill: black; font-weight: bold;">Warriors</tspan><tspan x="0" y="10" style="font-family: Arial, sans-serif; font-size: 10px; fill: black; font-weight: normal;">San Francisco</tspan></text><text transform="rotate(-39.30817610062893) translate(241.66666666666669,0) rotate(0)"><tspan x="0" y="-2" style="font-family: Arial, sans-serif; font-size: 10px; fill: black; font-weight: bold;">Raptors</tspan><tspan x="0" y="10" style="font-family: Arial, sans-serif; font-size: 10px; fill: black; font-weight: normal;">Toronto</tspan></text><text transform="rotate(-25.849056603773576) translate(241.66666666666669,0) rotate(0)"><tspan x="0" y="-2" style="font-family: Arial, sans-serif; font-size: 10px; fill: black; font-weight: bold;">Bucks</tspan><tspan x="0" y="10" style="font-family: Arial, sans-serif; font-size: 10px; fill: black; font-weight: normal;">Milwaukee</tspan></text><text transform="rotate(-12.893081761006286) translate(241.66666666666669,0) rotate(0)"><tspan x="0" y="-2" style="font-family: Arial, sans-serif; font-size: 10px; fill: black; font-weight: bold;">Knicks</tspan><tspan x="0" y="10" style="font-family: Arial, sans-serif; font-size: 10px; fill: black; font-weight: normal;">New York</tspan></text><text transform="rotate(-0.06289308176100405) translate(241.66666666666669,0) rotate(0)"><tspan x="0" y="-2" style="font-family: Arial, sans-serif; font-size: 10px; fill: black; font-weight: bold;">Heat</tspan><tspan x="0" y="10" style="font-family: Arial, sans-serif; font-size: 10px; fill: black; font-weight: normal;">Miami</tspan></text><text transform="rotate(12.767295597484278) translate(241.66666666666669,0) rotate(0)"><tspan x="0" y="-2" style="font-family: Arial, sans-serif; font-size: 10px; fill: black; font-weight: bold;">Magic</tspan><tspan x="0" y="10" style="font-family: Arial, sans-serif; font-size: 10px; fill: black; font-weight: normal;">Orlando</tspan></text><text transform="rotate(25.59748427672956) translate(241.66666666666669,0) rotate(0)"><tspan x="0" y="-2" style="font-family: Arial, sans-serif; font-size: 10px; fill: black; font-weight: bold;">Kings</tspan><tspan x="0" y="10" style="font-family: Arial, sans-serif; font-size: 10px; fill: black; font-weight: normal;">Sacramento</tspan></text><text transform="rotate(38.427672955974856) translate(241.66666666666669,0) rotate(0)"><tspan x="0" y="-2" style="font-family: Arial, sans-serif; font-size: 10px; fill: black; font-weight: bold;">Grizzlies</tspan><tspan x="0" y="10" style="font-family: Arial, sans-serif; font-size: 10px; fill: black; font-weight: normal;">Memphis</tspan></text><text transform="rotate(50.880503144654085) translate(241.66666666666669,0) rotate(0)"><tspan x="0" y="-2" style="font-family: Arial, sans-serif; font-size: 10px; fill: black; font-weight: bold;">Jazz</tspan><tspan x="0" y="10" style="font-family: Arial, sans-serif; font-size: 10px; fill: black; font-weight: normal;">Salt Lake City</tspan></text><text transform="rotate(62.95597484276732) translate(241.66666666666669,0) rotate(0)"><tspan x="0" y="-2" style="font-family: Arial, sans-serif; font-size: 10px; fill: black; font-weight: bold;">Rockets</tspan><tspan x="0" y="10" style="font-family: Arial, sans-serif; font-size: 10px; fill: black; font-weight: normal;">Houston</tspan></text><text transform="rotate(74.90566037735849) translate(241.66666666666669,0) rotate(0)"><tspan x="0" y="-2" style="font-family: Arial, sans-serif; font-size: 10px; fill: black; font-weight: bold;">Hawks</tspan><tspan x="0" y="10" style="font-family: Arial, sans-serif; font-size: 10px; fill: black; font-weight: normal;">Atlanta</tspan></text><text transform="rotate(86.60377358490564) translate(241.66666666666669,0) rotate(0)"><tspan x="0" y="-2" style="font-family: Arial, sans-serif; font-size: 10px; fill: black; font-weight: bold;">Pacers</tspan><tspan x="0" y="10" style="font-family: Arial, sans-serif; font-size: 10px; fill: black; font-weight: normal;">Indianapolis</tspan></text><text transform="rotate(98.17610062893081) translate(241.66666666666669,0) rotate(180)"><tspan x="0" y="-2" style="font-family: Arial, sans-serif; font-size: 10px; fill: black; font-weight: bold;">Cavaliers</tspan><tspan x="0" y="10" style="font-family: Arial, sans-serif; font-size: 10px; fill: black; font-weight: normal;">Cleveland</tspan></text><text transform="rotate(109.74842767295593) translate(241.66666666666669,0) rotate(180)"><tspan x="0" y="-2" style="font-family: Arial, sans-serif; font-size: 10px; fill: black; font-weight: bold;">Suns</tspan><tspan x="0" y="10" style="font-family: Arial, sans-serif; font-size: 10px; fill: black; font-weight: normal;">Phoenix</tspan></text><text transform="rotate(121.32075471698107) translate(241.66666666666669,0) rotate(180)"><tspan x="0" y="-2" style="font-family: Arial, sans-serif; font-size: 10px; fill: black; font-weight: bold;">Mavericks</tspan><tspan x="0" y="10" style="font-family: Arial, sans-serif; font-size: 10px; fill: black; font-weight: normal;">Dallas</tspan></text><text transform="rotate(132.89308176100624) translate(241.66666666666669,0) rotate(180)"><tspan x="0" y="-2" style="font-family: Arial, sans-serif; font-size: 10px; fill: black; font-weight: bold;">Lakers</tspan><tspan x="0" y="10" style="font-family: Arial, sans-serif; font-size: 10px; fill: black; font-weight: normal;">Los Angeles</tspan></text><text transform="rotate(144.33962264150938) translate(241.66666666666669,0) rotate(180)"><tspan x="0" y="-2" style="font-family: Arial, sans-serif; font-size: 10px; fill: black; font-weight: bold;">Clippers</tspan><tspan x="0" y="10" style="font-family: Arial, sans-serif; font-size: 10px; fill: black; font-weight: normal;">Los Angeles</tspan></text><text transform="rotate(155.53459119496853) translate(241.66666666666669,0) rotate(180)"><tspan x="0" y="-2" style="font-family: Arial, sans-serif; font-size: 10px; fill: black; font-weight: bold;">Timberwolves</tspan><tspan x="0" y="10" style="font-family: Arial, sans-serif; font-size: 10px; fill: black; font-weight: normal;">Minnesota</tspan></text><text transform="rotate(166.6037735849057) translate(241.66666666666669,0) rotate(180)"><tspan x="0" y="-2" style="font-family: Arial, sans-serif; font-size: 10px; fill: black; font-weight: bold;">Thunder</tspan><tspan x="0" y="10" style="font-family: Arial, sans-serif; font-size: 10px; fill: black; font-weight: normal;">Oklahoma City</tspan></text><text transform="rotate(177.67295597484275) translate(241.66666666666669,0) rotate(180)"><tspan x="0" y="-2" style="font-family: Arial, sans-serif; font-size: 10px; fill: black; font-weight: bold;">Blazers</tspan><tspan x="0" y="10" style="font-family: Arial, sans-serif; font-size: 10px; fill: black; font-weight: normal;">Portland</tspan></text><text transform="rotate(188.74213836477992) translate(241.66666666666669,0) rotate(180)"><tspan x="0" y="-2" style="font-family: Arial, sans-serif; font-size: 10px; fill: black; font-weight: bold;">76ers</tspan><tspan x="0" y="10" style="font-family: Arial, sans-serif; font-size: 10px; fill: black; font-weight: normal;">Philadelphia</tspan></text><text transform="rotate(199.81132075471703) translate(241.66666666666669,0) rotate(180)"><tspan x="0" y="-2" style="font-family: Arial, sans-serif; font-size: 10px; fill: black; font-weight: bold;">Pistons</tspan><tspan x="0" y="10" style="font-family: Arial, sans-serif; font-size: 10px; fill: black; font-weight: normal;">Detroit</tspan></text><text transform="rotate(210.8805031446542) translate(241.66666666666669,0) rotate(180)"><tspan x="0" y="-2" style="font-family: Arial, sans-serif; font-size: 10px; fill: black; font-weight: bold;">Pelicans</tspan><tspan x="0" y="10" style="font-family: Arial, sans-serif; font-size: 10px; fill: black; font-weight: normal;">New Orleans</tspan></text><text transform="rotate(221.94968553459125) translate(241.66666666666669,0) rotate(180)"><tspan x="0" y="-2" style="font-family: Arial, sans-serif; font-size: 10px; fill: black; font-weight: bold;">Spurs</tspan><tspan x="0" y="10" style="font-family: Arial, sans-serif; font-size: 10px; fill: black; font-weight: normal;">San Antonio</tspan></text><text transform="rotate(232.89308176100621) translate(241.66666666666669,0) rotate(180)"><tspan x="0" y="-2" style="font-family: Arial, sans-serif; font-size: 10px; fill: black; font-weight: bold;">Celtics</tspan><tspan x="0" y="10" style="font-family: Arial, sans-serif; font-size: 10px; fill: black; font-weight: normal;">Boston</tspan></text><text transform="rotate(243.7106918238993) translate(241.66666666666669,0) rotate(180)"><tspan x="0" y="-2" style="font-family: Arial, sans-serif; font-size: 10px; fill: black; font-weight: bold;">Nuggets</tspan><tspan x="0" y="10" style="font-family: Arial, sans-serif; font-size: 10px; fill: black; font-weight: normal;">Denver</tspan></text><text transform="rotate(254.40251572327043) translate(241.66666666666669,0) rotate(180)"><tspan x="0" y="-2" style="font-family: Arial, sans-serif; font-size: 10px; fill: black; font-weight: bold;">Nets</tspan><tspan x="0" y="10" style="font-family: Arial, sans-serif; font-size: 10px; fill: black; font-weight: normal;">Brooklyn</tspan></text><text transform="rotate(264.8427672955974) translate(241.66666666666669,0) rotate(180)"><tspan x="0" y="-2" style="font-family: Arial, sans-serif; font-size: 10px; fill: black; font-weight: bold;">Bulls</tspan><tspan x="0" y="10" style="font-family: Arial, sans-serif; font-size: 10px; fill: black; font-weight: normal;">Chicago</tspan></text></g></svg>