<svg xmlns="http://www.w3.org/2000/svg" width="805" height="600"><rect width="805" height="600" x="0" y="0" fill="#FFFFFF" id="backgorund"/><g transform="translate(402.5,300)" id="viz"><path fill="#32e9a7" display="" d="M0.9999920729479248,-287.99826391118063A288,288,0,0,1,75.253215739616,-277.99452066694914L37.40840189547728,-140.0914396657642A145,145,0,0,0,0.999992072947915,-144.99655173780528Z"><title>Hornets</title></path><path fill="#900c00" display="" d="M77.18189177769149,-277.46523310428773A288,288,0,0,1,141.75932336261747,-250.69562070322021L70.93924836201701,-126.46194305731692A145,145,0,0,0,39.33707793355277,-139.56215210310276Z"><title>Wizards</title></path><path fill="#960d00" display="" d="M143.49682273868717,-249.7051498545871A288,288,0,0,1,198.5181053483926,-208.64937538580003L99.58804123655389,-105.39080625304297A145,145,0,0,0,72.6767477380867,-125.47147220868379Z"><title>Warriors</title></path><path fill="#ff7c1c" display="" d="M199.9622524012826,-207.26576565995106A288,288,0,0,1,242.65640153793902,-155.11889244272766L121.90260687105993,-78.51595021420687A145,145,0,0,0,101.03218828944388,-104.00719652719401Z"><title>Raptors</title></path><path fill="#4a42b8" display="" d="M243.7277500389994,-153.43006179014276A288,288,0,0,1,271.4688030630672,-96.17010431264818L136.51039699458607,-48.88672122755322A145,145,0,0,0,122.97395537212032,-76.827119561622Z"><title>Bucks</title></path><path fill="#6dfe68" display="" d="M272.130095960175,-94.28261171979665A288,288,0,0,1,286.0466533518068,-33.485998659608235L143.95796791184162,-17.352333407734502A145,145,0,0,0,137.1716898916939,-46.999228634701694Z"><title>Knicks</title></path><path fill="#29dbbd" display="" d="M286.27229452930413,-31.498783864259686A288,288,0,0,1,286.3407564853794,30.870231216831865L144.21699391682577,15.04854363698488A145,145,0,0,0,144.18360908933897,-15.365118612385947Z"><title>Heat</title></path><path fill="#a2f84a" display="" d="M286.11947854513596,32.85793659162869A288,288,0,0,1,272.33642641607827,93.68495528589426L137.27454053916998,46.697971259571624A145,145,0,0,0,143.99571597658232,17.03624901178171Z"><title>Magic</title></path><path fill="#55fb7b" display="" d="M271.6792788778573,95.57389511999295A288,288,0,0,1,244.73296973408176,151.82151864981793L123.47727937080164,76.01553445964188A145,145,0,0,0,136.6173930009491,48.586911093670324Z"><title>Kings</title></path><path fill="#27b7e5" display="" d="M243.67276727748066,153.51736868294338A288,288,0,0,1,204.90876577448853,202.37687048864007L103.51417701088731,101.53725994805399A145,145,0,0,0,122.4170769142005,77.71138449276732Z"><title>Grizzlies</title></path><path fill="#41f490" display="" d="M203.4984496370498,203.79494840480496A288,288,0,0,1,158.03749369267024,240.76575875181922L79.98211667095308,120.94569447828249A145,145,0,0,0,102.10386087344857,102.95533786421885Z"><title>Jazz</title></path><path fill="#f96418" display="" d="M156.3617219465477,241.85742062196582A288,288,0,0,1,104.17239394865457,268.49974364793405L52.91050930971375,135.00177037574986A145,145,0,0,0,78.30634492483054,122.03735634842909Z"><title>Rockets</title></path><path fill="#25cbd3" display="" d="M102.30532658284646,269.2166788161111A288,288,0,0,1,46.94530121273915,284.1480928917968L24.125405407739816,142.97889639353144A145,145,0,0,0,51.043441943905655,135.7187055439269Z"><title>Hawks</title></path><path fill="#fac029" display="" d="M44.970946146674784,284.46724592239593A288,288,0,0,1,-11.01045619497985,287.7894540360686L-5.047259553888766,144.91212913692104A145,145,0,0,0,22.151050341675454,143.29804942413054Z"><title>Pacers</title></path><path fill="#4173f4" display="" d="M-13.008700693338403,287.70605434413636A288,288,0,0,1,-68.5185780624996,279.73059264280187L-34.01472568297842,140.95388762539233A145,145,0,0,0,-7.045504052247316,144.8287294449888Z"><title>Cavaliers</title></path><path fill="#d3360f" display="" d="M-70.45947237513535,279.2480308840468A288,288,0,0,1,-123.24104326316153,260.29914570625766L-61.59930632247579,131.2650961245593A145,145,0,0,0,-35.95561999561417,140.47132586663724Z"><title>Suns</title></path><path fill="#bdef3f" display="" d="M-125.04567937221209,259.43704066756146A288,288,0,0,1,-172.9530829193326,230.2851083085888L-86.67953670860824,116.23965724304693A145,145,0,0,0,-63.40394243152632,130.4029910858631Z"><title>Mavericks</title></path><path fill="#87fd58" display="" d="M-174.5480924515687,229.07850929652616A288,288,0,0,1,-215.63362948105575,190.90871597919977L-108.23576767530977,96.48843762719122A145,145,0,0,0,-88.27454624084432,115.03305823098435Z"><title>Lakers</title></path><path fill="#2da2f3" display="" d="M-216.95416653536836,189.40667787315118A288,288,0,0,1,-248.9138167564234,144.86515049434658L-125.07070122961004,73.36429440765872A145,145,0,0,0,-109.55630472962233,94.98639952114267Z"><title>Clippers</title></path><path fill="#a71503" display="" d="M-249.91380882937128,143.13311341683468A288,288,0,0,1,-272.09630125877163,94.38009769700287L-136.82940913526247,47.98658974854283A145,145,0,0,0,-126.0706933025579,71.63225733014687Z"><title>Timberwolves</title></path><path fill="#bc2309" display="" d="M-272.7451485974448,92.48829069972983A288,288,0,0,1,-285.154666633149,40.383364116151355L-143.49698852543455,20.823407121105433A145,145,0,0,0,-137.4782564739357,46.09478275126985Z"><title>Thunder</title></path><path fill="#402c79" display="" d="M-285.4282270212727,38.40217727542071A288,288,0,0,1,-287.6030391427383,-15.115947732793982L-144.82535308756337,-7.114569773541844A145,145,0,0,0,-143.7705489135582,18.84222028037486Z"><title>Blazers</title></path><path fill="#32327a" display="" d="M-287.4911339856558,-17.112798708618907A288,288,0,0,1,-279.35032010357327,-70.05282762338115L-140.76507722854035,-34.787828803233296A145,145,0,0,0,-144.71344793048092,-9.111420749366703Z"><title>76ers</title></path><path fill="#ff9420" display="" d="M-278.85711315189826,-71.99104419710403A288,288,0,0,1,-260.70357547096336,-122.3831922146816L-131.4672350949048,-61.16670741915926A145,145,0,0,0,-140.27187027686543,-36.72604537695613Z"><title>Pistons</title></path><path fill="#ffab24" display="" d="M-259.8474178963598,-124.19065750930926A288,288,0,0,1,-232.35661057462482,-170.15994100337528L-117.27777942823575,-85.26970418842839A145,145,0,0,0,-130.61107752030125,-62.97417271378688Z"><title>Pelicans</title></path><path fill="#e84c14" display="" d="M-231.16935816211247,-171.76940311626214A288,288,0,0,1,-195.36415511209208,-211.60540375268874L-98.72466940646338,-106.19999835491765A145,145,0,0,0,-116.09052701572345,-86.87916630131521Z"><title>Spurs</title></path><path fill="#378bf9" display="" d="M-193.88998297468663,-212.95697805443177A288,288,0,0,1,-152.17767574060866,-244.51166640098415L-77.03833657853104,-122.8417465571577A145,145,0,0,0,-97.25049726905797,-107.55157265666061Z"><title>Celtics</title></path><path fill="#ead32e" display="" d="M-150.47603240346422,-245.56254533644088A288,288,0,0,1,-103.58268368812807,-268.7277946918874L-52.61400148922808,-135.1176037653551A145,145,0,0,0,-75.3366932413867,-123.89262549261437Z"><title>Nuggets</title></path><path fill="#d5e335" display="" d="M-101.71404687586947,-269.4406292082421A288,288,0,0,1,-52.55009686846681,-283.16512376900295L-26.945553087367774,-142.47433863266693A145,145,0,0,0,-50.74536467696955,-135.83043828170977Z"><title>Nets</title></path><path fill="#495ae0" display="" d="M-50.58243273724885,-283.5232221501119A288,288,0,0,1,-0.99999207294796,-287.99826391118063L-0.9999920729479006,-144.99655173780528A145,145,0,0,0,-24.97788895614987,-142.83243701377586Z"><title>Bulls</title></path></g><g id="labels" transform="translate(402.5,300)" text-anchor="middle"><text transform="rotate(90) translate(72.5,0) rotate(180)"><tspan x="0" y="4" style="font-family: Arial, sans-serif; font-size: 10px; fill: black; font-weight: normal; font-style: italic;"/></text><text transform="rotate(-82.32704402515724) translate(217.5,0) rotate(0)"><tspan x="0" y="-8" style="font-family: Arial, sans-serif; font-size: 10px; fill: black; font-weight: bold;">Hornets</tspan><tspan x="0" y="4" style="font-family: Arial, sans-serif; font-size: 10px; fill: black; font-weight: normal;">Charlotte</tspan><tspan x="0" y="16" style="font-family: Arial, sans-serif; font-size: 10px; fill: black; font-weight: normal; font-style: italic;">61</tspan></text><text transform="rotate(-67.48427672955975) translate(217.5,0) rotate(0)"><tspan x="0" y="-8" style="font-family: Arial, sans-serif; font-size: 10px; fill: black; font-weight: bold;">Wizards</tspan><tspan x="0" y="4" style="font-family: Arial, sans-serif; font-size: 10px; fill: black; font-weight: normal;">Washington DC</tspan><tspan x="0" y="16" style="font-family: Arial, sans-serif; font-size: 10px; fill: black; font-weight: normal; font-style: italic;">57</tspan></text><text transform="rotate(-53.27044025157233) translate(217.5,0) rotate(0)"><tspan x="0" y="-8" style="font-family: Arial, sans-serif; font-size: 10px; fill: black; font-weight: bold;">Warriors</tspan><tspan x="0" y="4" style="font-family: Arial, sans-serif; font-size: 10px; fill: black; font-weight: normal;">San Francisco</tspan><tspan x="0" y="16" style="font-family: Arial, sans-serif; font-size: 10px; fill: black; font-weight: normal; font-style: italic;">56</tspan></text><text transform="rotate(-39.30817610062893) translate(217.5,0) rotate(0)"><tspan x="0" y="-8" style="font-family: Arial, sans-serif; font-size: 10px; fill: black; font-weight: bold;">Raptors</tspan><tspan x="0" y="4" style="font-family: Arial, sans-serif; font-size: 10px; fill: black; font-weight: normal;">Toronto</tspan><tspan x="0" y="16" style="font-family: Arial, sans-serif; font-size: 10px; fill: black; font-weight: normal; font-style: italic;">55</tspan></text><text transform="rotate(-25.849056603773576) translate(217.5,0) rotate(0)"><tspan x="0" y="-8" style="font-family: Arial, sans-serif; font-size: 10px; fill: black; font-weight: bold;">Bucks</tspan><tspan x="0" y="4" style="font-family: Arial, sans-serif; font-size: 10px; fill: black; font-weight: normal;">Milwaukee</tspan><tspan x="0" y="16" style="font-family: Arial, sans-serif; font-size: 10px; fill: black; font-weight: normal; font-style: italic;">52</tspan></text><text transform="rotate(-12.893081761006286) translate(217.5,0) rotate(0)"><tspan x="0" y="-8" style="font-family: Arial, sans-serif; font-size: 10px; fill: black; font-weight: bold;">Knicks</tspan><tspan x="0" y="4" style="font-family: Arial, sans-serif; font-size: 10px; fill: black; font-weight: normal;">New York</tspan><tspan x="0" y="16" style="font-family: Arial, sans-serif; font-size: 10px; fill: black; font-weight: normal; font-style: italic;">51</tspan></text><text transform="rotate(-0.06289308176100405) translate(217.5,0) rotate(0)"><tspan x="0" y="-8" style="font-family: Arial, sans-serif; font-size: 10px; fill: black; font-weight: bold;">Heat</tspan><tspan x="0" y="4" style="font-family: Arial, sans-serif; font-size: 10px; fill: black; font-weight: normal;">Miami</tspan><tspan x="0" y="16" style="font-family: Arial, sans-serif; font-size: 10px; fill: black; font-weight: normal; font-style: italic;">51</tspan></text><text transform="rotate(12.767295597484278) translate(217.5,0) rotate(0)"><tspan x="0" y="-8" style="font-family: Arial, sans-serif; font-size: 10px; fill: black; font-weight: bold;">Magic</tspan><tspan x="0" y="4" style="font-family: Arial, sans-serif; font-size: 10px; fill: black; font-weight: normal;">Orlando</tspan><tspan x="0" y="16" style="font-family: Arial, sans-serif; font-size: 10px; fill: black; font-weight: normal; font-style: italic;">51</tspan></text><text transform="rotate(25.59748427672956) translate(217.5,0) rotate(0)"><tspan x="0" y="-8" style="font-family: Arial, sans-serif; font-size: 10px; fill: black; font-weight: bold;">Kings</tspan><tspan x="0" y="4" style="font-family: Arial, sans-serif; font-size: 10px; fill: black; font-weight: normal;">Sacramento</tspan><tspan x="0" y="16" style="font-family: Arial, sans-serif; font-size: 10px; fill: black; font-weight: normal; font-style: italic;">51</tspan></text><text transform="rotate(38.427672955974856) translate(217.5,0) rotate(0)"><tspan x="0" y="-8" style="font-family: Arial, sans-serif; font-size: 10px; fill: black; font-weight: bold;">Grizzlies</tspan><tspan x="0" y="4" style="font-family: Arial, sans-serif; font-size: 10px; fill: black; font-weight: normal;">Memphis</tspan><tspan x="0" y="16" style="font-family: Arial, sans-serif; font-size: 10px; fill: black; font-weight: normal; font-style: italic;">51</tspan></text><text transform="rotate(50.880503144654085) translate(217.5,0) rotate(0)"><tspan x="0" y="-8" style="font-family: Arial, sans-serif; font-size: 10px; fill: black; font-weight: bold;">Jazz</tspan><tspan x="0" y="4" style="font-family: Arial, sans-serif; font-size: 10px; fill: black; font-weight: normal;">Salt Lake City</tspan><tspan x="0" y="16" style="font-family: Arial, sans-serif; font-size: 10px; fill: black; font-weight: normal; font-style: italic;">48</tspan></text><text transform="rotate(62.95597484276726) translate(217.5,0) rotate(0)"><tspan x="0" y="-8" style="font-family: Arial, sans-serif; font-size: 10px; fill: black; font-weight: bold;">Rockets</tspan><tspan x="0" y="4" style="font-family: Arial, sans-serif; font-size: 10px; fill: black; font-weight: normal;">Houston</tspan><tspan x="0" y="16" style="font-family: Arial, sans-serif; font-size: 10px; fill: black; font-weight: normal; font-style: italic;">48</tspan></text><text transform="rotate(74.90566037735849) translate(217.5,0) rotate(0)"><tspan x="0" y="-8" style="font-family: Arial, sans-serif; font-size: 10px; fill: black; font-weight: bold;">Hawks</tspan><tspan x="0" y="4" style="font-family: Arial, sans-serif; font-size: 10px; fill: black; font-weight: normal;">Atlanta</tspan><tspan x="0" y="16" style="font-family: Arial, sans-serif; font-size: 10px; fill: black; font-weight: normal; font-style: italic;">47</tspan></text><text transform="rotate(86.60377358490564) translate(217.5,0) rotate(0)"><tspan x="0" y="-8" style="font-family: Arial, sans-serif; font-size: 10px; fill: black; font-weight: bold;">Pacers</tspan><tspan x="0" y="4" style="font-family: Arial, sans-serif; font-size: 10px; fill: black; font-weight: normal;">Indianapolis</tspan><tspan x="0" y="16" style="font-family: Arial, sans-serif; font-size: 10px; fill: black; font-weight: normal; font-style: italic;">46</tspan></text><text transform="rotate(98.17610062893075) translate(217.5,0) rotate(180)"><tspan x="0" y="-8" style="font-family: Arial, sans-serif; font-size: 10px; fill: black; font-weight: bold;">Cavaliers</tspan><tspan x="0" y="4" style="font-family: Arial, sans-serif; font-size: 10px; fill: black; font-weight: normal;">Cleveland</tspan><tspan x="0" y="16" style="font-family: Arial, sans-serif; font-size: 10px; fill: black; font-weight: normal; font-style: italic;">46</tspan></text><text transform="rotate(109.74842767295593) translate(217.5,0) rotate(180)"><tspan x="0" y="-8" style="font-family: Arial, sans-serif; font-size: 10px; fill: black; font-weight: bold;">Suns</tspan><tspan x="0" y="4" style="font-family: Arial, sans-serif; font-size: 10px; fill: black; font-weight: normal;">Phoenix</tspan><tspan x="0" y="16" style="font-family: Arial, sans-serif; font-size: 10px; fill: black; font-weight: normal; font-style: italic;">46</tspan></text><text transform="rotate(121.32075471698104) translate(217.5,0) rotate(180)"><tspan x="0" y="-8" style="font-family: Arial, sans-serif; font-size: 10px; fill: black; font-weight: bold;">Mavericks</tspan><tspan x="0" y="4" style="font-family: Arial, sans-serif; font-size: 10px; fill: black; font-weight: normal;">Dallas</tspan><tspan x="0" y="16" style="font-family: Arial, sans-serif; font-size: 10px; fill: black; font-weight: normal; font-style: italic;">46</tspan></text><text transform="rotate(132.89308176100621) translate(217.5,0) rotate(180)"><tspan x="0" y="-8" style="font-family: Arial, sans-serif; font-size: 10px; fill: black; font-weight: bold;">Lakers</tspan><tspan x="0" y="4" style="font-family: Arial, sans-serif; font-size: 10px; fill: black; font-weight: normal;">Los Angeles</tspan><tspan x="0" y="16" style="font-family: Arial, sans-serif; font-size: 10px; fill: black; font-weight: normal; font-style: italic;">46</tspan></text><text transform="rotate(144.33962264150935) translate(217.5,0) rotate(180)"><tspan x="0" y="-8" style="font-family: Arial, sans-serif; font-size: 10px; fill: black; font-weight: bold;">Clippers</tspan><tspan x="0" y="4" style="font-family: Arial, sans-serif; font-size: 10px; fill: black; font-weight: normal;">Los Angeles</tspan><tspan x="0" y="16" style="font-family: Arial, sans-serif; font-size: 10px; fill: black; font-weight: normal; font-style: italic;">45</tspan></text><text transform="rotate(155.53459119496853) translate(217.5,0) rotate(180)"><tspan x="0" y="-8" style="font-family: Arial, sans-serif; font-size: 10px; fill: black; font-weight: bold;">Timberwolves</tspan><tspan x="0" y="4" style="font-family: Arial, sans-serif; font-size: 10px; fill: black; font-weight: normal;">Minnesota</tspan><tspan x="0" y="16" style="font-family: Arial, sans-serif; font-size: 10px; fill: black; font-weight: normal; font-style: italic;">44</tspan></text><text transform="rotate(166.60377358490558) translate(217.5,0) rotate(180)"><tspan x="0" y="-8" style="font-family: Arial, sans-serif; font-size: 10px; fill: black; font-weight: bold;">Thunder</tspan><tspan x="0" y="4" style="font-family: Arial, sans-serif; font-size: 10px; fill: black; font-weight: normal;">Oklahoma City</tspan><tspan x="0" y="16" style="font-family: Arial, sans-serif; font-size: 10px; fill: black; font-weight: normal; font-style: italic;">44</tspan></text><text transform="rotate(177.67295597484275) translate(217.5,0) rotate(180)"><tspan x="0" y="-8" style="font-family: Arial, sans-serif; font-size: 10px; fill: black; font-weight: bold;">Blazers</tspan><tspan x="0" y="4" style="font-family: Arial, sans-serif; font-size: 10px; fill: black; font-weight: normal;">Portland</tspan><tspan x="0" y="16" style="font-family: Arial, sans-serif; font-size: 10px; fill: black; font-weight: normal; font-style: italic;">44</tspan></text><text transform="rotate(188.7421383647798) translate(217.5,0) rotate(180)"><tspan x="0" y="-8" style="font-family: Arial, sans-serif; font-size: 10px; fill: black; font-weight: bold;">76ers</tspan><tspan x="0" y="4" style="font-family: Arial, sans-serif; font-size: 10px; fill: black; font-weight: normal;">Philadelphia</tspan><tspan x="0" y="16" style="font-family: Arial, sans-serif; font-size: 10px; fill: black; font-weight: normal; font-style: italic;">44</tspan></text><text transform="rotate(199.81132075471703) translate(217.5,0) rotate(180)"><tspan x="0" y="-8" style="font-family: Arial, sans-serif; font-size: 10px; fill: black; font-weight: bold;">Pistons</tspan><tspan x="0" y="4" style="font-family: Arial, sans-serif; font-size: 10px; fill: black; font-weight: normal;">Detroit</tspan><tspan x="0" y="16" style="font-family: Arial, sans-serif; font-size: 10px; fill: black; font-weight: normal; font-style: italic;">44</tspan></text><text transform="rotate(210.88050314465409) translate(217.5,0) rotate(180)"><tspan x="0" y="-8" style="font-family: Arial, sans-serif; font-size: 10px; fill: black; font-weight: bold;">Pelicans</tspan><tspan x="0" y="4" style="font-family: Arial, sans-serif; font-size: 10px; fill: black; font-weight: normal;">New Orleans</tspan><tspan x="0" y="16" style="font-family: Arial, sans-serif; font-size: 10px; fill: black; font-weight: normal; font-style: italic;">44</tspan></text><text transform="rotate(221.94968553459125) translate(217.5,0) rotate(180)"><tspan x="0" y="-8" style="font-family: Arial, sans-serif; font-size: 10px; fill: black; font-weight: bold;">Spurs</tspan><tspan x="0" y="4" style="font-family: Arial, sans-serif; font-size: 10px; fill: black; font-weight: normal;">San Antonio</tspan><tspan x="0" y="16" style="font-family: Arial, sans-serif; font-size: 10px; fill: black; font-weight: normal; font-style: italic;">44</tspan></text><text transform="rotate(232.89308176100633) translate(217.5,0) rotate(180)"><tspan x="0" y="-8" style="font-family: Arial, sans-serif; font-size: 10px; fill: black; font-weight: bold;">Celtics</tspan><tspan x="0" y="4" style="font-family: Arial, sans-serif; font-size: 10px; fill: black; font-weight: normal;">Boston</tspan><tspan x="0" y="16" style="font-family: Arial, sans-serif; font-size: 10px; fill: black; font-weight: normal; font-style: italic;">43</tspan></text><text transform="rotate(243.71069182389937) translate(217.5,0) rotate(180)"><tspan x="0" y="-8" style="font-family: Arial, sans-serif; font-size: 10px; fill: black; font-weight: bold;">Nuggets</tspan><tspan x="0" y="4" style="font-family: Arial, sans-serif; font-size: 10px; fill: black; font-weight: normal;">Denver</tspan><tspan x="0" y="16" style="font-family: Arial, sans-serif; font-size: 10px; fill: black; font-weight: normal; font-style: italic;">43</tspan></text><text transform="rotate(254.40251572327043) translate(217.5,0) rotate(180)"><tspan x="0" y="-8" style="font-family: Arial, sans-serif; font-size: 10px; fill: black; font-weight: bold;">Nets</tspan><tspan x="0" y="4" style="font-family: Arial, sans-serif; font-size: 10px; fill: black; font-weight: normal;">Brooklyn</tspan><tspan x="0" y="16" style="font-family: Arial, sans-serif; font-size: 10px; fill: black; font-weight: normal; font-style: italic;">42</tspan></text><text transform="rotate(264.8427672955975) translate(217.5,0) rotate(180)"><tspan x="0" y="-8" style="font-family: Arial, sans-serif; font-size: 10px; fill: black; font-weight: bold;">Bulls</tspan><tspan x="0" y="4" style="font-family: Arial, sans-serif; font-size: 10px; fill: black; font-weight: normal;">Chicago</tspan><tspan x="0" y="16" style="font-family: Arial, sans-serif; font-size: 10px; fill: black; font-weight: normal; font-style: italic;">41</tspan></text></g></svg>